<svg width="144" height="144" viewBox="0 0 144 144" fill="none" xmlns="http://www.w3.org/2000/svg">
<path d="M144 72C144.009 79.8731 142.724 87.6941 140.198 95.1508C140.053 95.5768 139.904 96.0014 139.752 96.4246C137.077 103.824 133.208 110.736 128.298 116.885C126.833 118.723 125.28 120.486 123.64 122.172C122 123.861 120.278 125.468 118.474 126.993C108.414 135.524 96.1936 141.111 83.16 143.139H83.1579C81.4963 143.397 79.8185 143.598 78.1243 143.742C76.107 143.913 74.0656 143.999 72 144C62.3944 144.013 52.8841 142.097 44.0324 138.366C35.1808 134.636 27.168 129.167 20.4689 122.283C19.9981 121.801 19.5345 121.313 19.0779 120.817C17.9404 119.584 16.8462 118.312 15.7953 117.002C15.2052 116.265 14.6294 115.517 14.0677 114.757C10.6081 110.083 7.72968 105.006 5.49588 99.6369C4.54326 97.3503 3.71135 95.0153 3.00357 92.6414C2.95245 92.4731 2.90345 92.3049 2.85446 92.1366C2.74795 91.7744 2.64499 91.4102 2.54559 91.0438C0.851058 84.8379 -0.00506872 78.4331 2.25744e-05 72C2.25744e-05 32.236 32.236 0 72 0C111.764 0 144 32.236 144 72Z" fill="#14558F" fill-opacity="0.13"/>
<g clip-path="url(#clip0_1190_1293)">
<path d="M36.4249 106.518L36.5783 103.054C38.1779 102.196 39.9621 101.742 41.7758 101.733C39.2795 103.782 39.5915 107.732 37.8991 110.488C37.3647 111.343 36.6454 112.067 35.7946 112.605C34.9438 113.143 33.9832 113.482 32.984 113.597L30.8951 114.882C30.6084 113.277 30.6716 111.629 31.0803 110.052C31.489 108.475 32.2334 107.005 33.2624 105.744C33.8466 105.042 34.5164 104.418 35.2562 103.884C35.7565 105.208 36.4249 106.518 36.4249 106.518Z" fill="#F2F2F2"/>
<path d="M125.56 34.6436H28.3138C28.2729 34.6427 28.2341 34.6258 28.2056 34.5965C28.177 34.5672 28.161 34.5278 28.161 34.4869C28.161 34.4459 28.177 34.4065 28.2056 34.3772C28.2341 34.3479 28.2729 34.331 28.3138 34.3301H125.56C125.601 34.331 125.639 34.3479 125.668 34.3772C125.697 34.4065 125.713 34.4459 125.713 34.4869C125.713 34.5278 125.697 34.5672 125.668 34.5965C125.639 34.6258 125.601 34.6427 125.56 34.6436Z" fill="#CACACA"/>
<path d="M31.7519 32.449C32.6798 32.449 33.4321 31.677 33.4321 30.7245C33.4321 29.7721 32.6798 29 31.7519 29C30.8239 29 30.0717 29.7721 30.0717 30.7245C30.0717 31.677 30.8239 32.449 31.7519 32.449Z" fill="#3F3D56"/>
<path d="M37.5562 32.449C38.4842 32.449 39.2364 31.677 39.2364 30.7245C39.2364 29.7721 38.4842 29 37.5562 29C36.6282 29 35.876 29.7721 35.876 30.7245C35.876 31.677 36.6282 32.449 37.5562 32.449Z" fill="#3F3D56"/>
<path d="M43.3606 32.449C44.2886 32.449 45.0409 31.677 45.0409 30.7245C45.0409 29.7721 44.2886 29 43.3606 29C42.4327 29 41.6804 29.7721 41.6804 30.7245C41.6804 31.677 42.4327 32.449 43.3606 32.449Z" fill="#3F3D56"/>
<path d="M122.082 29.4277H117.958C117.877 29.4294 117.799 29.4631 117.742 29.5217C117.684 29.5803 117.652 29.6591 117.652 29.7412C117.652 29.8232 117.684 29.902 117.742 29.9606C117.799 30.0193 117.877 30.053 117.958 30.0546H122.082C122.163 30.053 122.241 30.0193 122.298 29.9606C122.356 29.902 122.388 29.8232 122.388 29.7412C122.388 29.6591 122.356 29.5803 122.298 29.5217C122.241 29.4631 122.163 29.4294 122.082 29.4277Z" fill="#3F3D56"/>
<path d="M122.082 30.6045H117.958C117.877 30.6061 117.799 30.6399 117.742 30.6985C117.684 30.7571 117.652 30.8359 117.652 30.9179C117.652 31 117.684 31.0788 117.742 31.1374C117.799 31.196 117.877 31.2297 117.958 31.2314H122.082C122.163 31.2297 122.241 31.196 122.298 31.1374C122.356 31.0788 122.388 31 122.388 30.9179C122.388 30.8359 122.356 30.7571 122.298 30.6985C122.241 30.6399 122.163 30.6061 122.082 30.6045Z" fill="#3F3D56"/>
<path d="M122.082 31.7793H117.958C117.877 31.7809 117.799 31.8147 117.742 31.8733C117.684 31.9319 117.652 32.0107 117.652 32.0927C117.652 32.1748 117.684 32.2536 117.742 32.3122C117.799 32.3708 117.877 32.4046 117.958 32.4062H122.082C122.163 32.4046 122.241 32.3708 122.298 32.3122C122.356 32.2536 122.388 32.1748 122.388 32.0927C122.388 32.0107 122.356 31.9319 122.298 31.8733C122.241 31.8147 122.163 31.7809 122.082 31.7793Z" fill="#3F3D56"/>
<path d="M103.765 47H37.237C36.9092 47 36.5948 47.1306 36.3629 47.3631C36.1309 47.5956 36.0004 47.911 36 48.24V79.7585C36.0004 80.0876 36.1308 80.4032 36.3627 80.636C36.5946 80.8687 36.909 80.9996 37.237 81H103.765C104.092 80.9993 104.406 80.8682 104.638 80.6355C104.87 80.4028 105 80.0874 105 79.7585V48.24C105 47.9112 104.869 47.596 104.638 47.3636C104.406 47.1311 104.092 47.0003 103.765 47Z" fill="white"/>
<path d="M86.3663 62.1729C86.0376 62.1732 85.7225 62.3044 85.4901 62.5377C85.2578 62.771 85.127 63.0874 85.1267 63.4174V72.3528C85.127 72.6829 85.2576 72.9995 85.49 73.233C85.7223 73.4666 86.0375 73.5982 86.3663 73.5989H105.237V62.1729H86.3663Z" fill="#14558F"/>
<path d="M136.966 73.5979H86.367C86.0381 73.5975 85.7228 73.4662 85.4902 73.2327C85.2577 72.9992 85.1268 72.6826 85.1265 72.3524V63.4173C85.1268 63.0871 85.2577 62.7705 85.4902 62.5371C85.7228 62.3036 86.0381 62.1722 86.367 62.1719H136.966C137.295 62.1722 137.61 62.3036 137.843 62.5371C138.075 62.7705 138.206 63.0871 138.207 63.4173V72.3524C138.206 72.6826 138.075 72.9992 137.843 73.2327C137.61 73.4662 137.295 73.5975 136.966 73.5979Z" fill="#14558F"/>
<path d="M93.2097 70.4777C94.3215 70.4777 95.2227 69.5728 95.2227 68.4566C95.2227 67.3404 94.3215 66.4355 93.2097 66.4355C92.0979 66.4355 91.1967 67.3404 91.1967 68.4566C91.1967 69.5728 92.0979 70.4777 93.2097 70.4777Z" fill="white"/>
<path d="M135.398 67.8687H99.0244C98.8654 67.8687 98.7129 67.8053 98.6005 67.6924C98.4881 67.5796 98.4249 67.4265 98.4249 67.2669C98.4249 67.1073 98.4881 66.9542 98.6005 66.8413C98.7129 66.7284 98.8654 66.665 99.0244 66.665H135.398C135.557 66.665 135.71 66.7284 135.822 66.8413C135.935 66.9542 135.998 67.1073 135.998 67.2669C135.998 67.4265 135.935 67.5796 135.822 67.6924C135.71 67.8053 135.557 67.8687 135.398 67.8687Z" fill="white"/>
<path d="M121.583 70.2467H99.0243C98.8653 70.2467 98.7128 70.1833 98.6004 70.0704C98.488 69.9575 98.4248 69.8045 98.4248 69.6448C98.4248 69.4852 98.488 69.3321 98.6004 69.2193C98.7128 69.1064 98.8653 69.043 99.0243 69.043H121.583C121.742 69.043 121.894 69.1064 122.007 69.2193C122.119 69.3321 122.182 69.4852 122.182 69.6448C122.182 69.8045 122.119 69.9575 122.007 70.0704C121.894 70.1833 121.742 70.2467 121.583 70.2467Z" fill="white"/>
<path d="M26.285 113.234L28.0271 113.234L28.8559 106.487H26.2847L26.285 113.234Z" fill="#FFB6B6"/>
<path d="M25.8406 112.663L26.3309 112.663L28.2454 111.881L29.2715 112.662H29.2716C29.8515 112.662 30.4076 112.894 30.8176 113.305C31.2276 113.717 31.458 114.275 31.458 114.858V114.929L25.8407 114.929L25.8406 112.663Z" fill="#2F2E41"/>
<path d="M10.5436 110.96L12.1029 111.74L15.8422 106.073L13.541 104.922L10.5436 110.96Z" fill="#FFB6B6"/>
<path d="M10.3997 110.25L10.8386 110.47L12.8993 110.627L13.4703 111.786L13.4705 111.787C13.9894 112.046 14.3844 112.502 14.5684 113.054C14.7525 113.606 14.7106 114.209 14.4519 114.73L14.4203 114.794L9.3927 112.279L10.3997 110.25Z" fill="#2F2E41"/>
<path d="M27.0569 82.5938L15.9799 82.8839L16.1726 88.2994C16.1726 88.2994 15.9799 89.75 16.3652 90.1368C16.7505 90.5237 16.9431 90.5237 16.7505 91.2006C16.5578 91.8775 16.0598 98.3455 16.0598 98.3455C16.0598 98.3455 11.5135 106.416 11.7061 106.61C11.8988 106.803 12.0914 106.61 11.8988 107.093C11.7061 107.577 11.5135 107.383 11.7061 107.577C11.8768 107.761 12.0375 107.955 12.1877 108.157H15.3275C15.3275 108.157 15.5031 107.19 15.5031 107.093C15.5031 106.996 15.6957 106.416 15.6957 106.32C15.6957 106.223 21.1813 100.388 21.1813 100.388L22.3371 90.7171L25.1305 100.194C25.1305 100.194 25.1305 108.511 25.3231 108.704C25.5158 108.898 25.5158 108.801 25.4194 109.188C25.3231 109.575 24.9378 109.478 25.2268 109.768C25.5158 110.058 25.6121 109.575 25.5158 110.058L25.4194 110.542L29.12 110.583C29.12 110.583 29.5053 109.768 29.3127 109.478C29.12 109.188 29.1316 109.267 29.3666 108.792C29.6016 108.318 29.698 108.221 29.6016 108.124C29.5053 108.027 29.5053 107.513 29.5053 107.513C29.5053 107.513 28.1164 88.4928 28.1164 88.2027C28.1092 88.0534 28.1366 87.9045 28.1965 87.7677V87.3739L27.8275 85.9785L27.0569 82.5938Z" fill="#2F2E41"/>
<path d="M136.75 65.8025C135.909 65.8025 135.087 65.5522 134.388 65.0833C133.689 64.6144 133.144 63.9479 132.823 63.1681C132.501 62.3883 132.417 61.5303 132.581 60.7025C132.745 59.8747 133.15 59.1143 133.744 58.5175C134.338 57.9207 135.096 57.5142 135.92 57.3496C136.745 57.1849 137.599 57.2694 138.376 57.5924C139.153 57.9154 139.817 58.4624 140.284 59.1642C140.751 59.8659 141 60.691 141 61.535C141 62.6668 140.552 63.7523 139.755 64.5526C138.958 65.3529 137.877 65.8025 136.75 65.8025Z" fill="#14558F"/>
<path d="M138.197 62.4805L137.343 61.5572L138.27 60.6996C138.352 60.6237 138.401 60.5186 138.405 60.4073C138.41 60.2959 138.37 60.1875 138.295 60.1059C138.219 60.0243 138.114 59.9761 138.003 59.972C137.891 59.9679 137.783 60.0082 137.701 60.084L136.774 60.9416L135.92 60.0182C135.882 59.9777 135.837 59.945 135.787 59.9219C135.737 59.8988 135.683 59.8859 135.628 59.8838C135.572 59.8817 135.517 59.8905 135.465 59.9097C135.414 59.9289 135.366 59.9581 135.325 59.9957C135.285 60.0333 135.252 60.0785 135.229 60.1287C135.205 60.179 135.192 60.2332 135.19 60.2884C135.188 60.3436 135.197 60.3987 135.216 60.4504C135.235 60.5021 135.264 60.5496 135.302 60.59L136.156 61.5133L135.229 62.3709C135.147 62.4467 135.098 62.5519 135.094 62.6632C135.089 62.7745 135.129 62.8829 135.204 62.9646C135.28 63.0462 135.385 63.0944 135.496 63.0985C135.608 63.1026 135.716 63.0623 135.798 62.9865L136.725 62.1289L137.579 63.0522C137.655 63.1338 137.76 63.182 137.871 63.1861C137.983 63.1902 138.091 63.15 138.173 63.0741C138.255 62.9983 138.304 62.8932 138.308 62.7819C138.313 62.6705 138.273 62.5621 138.197 62.4805Z" fill="white"/>
<path d="M71.8807 73.6562H55.7311C55.402 73.6566 55.0866 73.788 54.8539 74.0216C54.6212 74.2552 54.4904 74.5719 54.49 74.9023V81.0569H73.1203V74.9023C73.12 74.5722 72.9894 74.2556 72.757 74.0221C72.5247 73.7885 72.2095 73.6569 71.8807 73.6562Z" fill="#14558F"/>
<path d="M71.8801 90.9497H55.7304C55.4015 90.9493 55.0862 90.8179 54.8536 90.5845C54.6211 90.351 54.4902 90.0344 54.4899 89.7042V74.9017C54.4902 74.5715 54.6211 74.2549 54.8536 74.0214C55.0862 73.788 55.4015 73.6566 55.7304 73.6562H71.8801C72.209 73.6566 72.5243 73.788 72.7568 74.0214C72.9894 74.2549 73.1202 74.5715 73.1206 74.9017V89.7042C73.1202 90.0344 72.9894 90.351 72.7569 90.5845C72.5243 90.8179 72.209 90.9493 71.8801 90.9497Z" fill="#14558F"/>
<path d="M60.4886 80.672C61.6004 80.672 62.5017 79.7672 62.5017 78.6509C62.5017 77.5347 61.6004 76.6299 60.4886 76.6299C59.3769 76.6299 58.4756 77.5347 58.4756 78.6509C58.4756 79.7672 59.3769 80.672 60.4886 80.672Z" fill="white"/>
<path d="M68.5354 83.7437H59.075C58.916 83.7437 58.7636 83.6803 58.6512 83.5674C58.5387 83.4546 58.4756 83.3015 58.4756 83.1419C58.4756 82.9822 58.5387 82.8292 58.6512 82.7163C58.7636 82.6034 58.916 82.54 59.075 82.54H68.5354C68.6944 82.54 68.8468 82.6034 68.9592 82.7163C69.0717 82.8292 69.1348 82.9822 69.1348 83.1419C69.1348 83.3015 69.0717 83.4546 68.9592 83.5674C68.8468 83.6803 68.6944 83.7437 68.5354 83.7437Z" fill="white"/>
<path d="M63.6402 86.1217H59.0751C58.9161 86.1217 58.7636 86.0583 58.6512 85.9454C58.5387 85.8325 58.4756 85.6795 58.4756 85.5198C58.4756 85.3602 58.5387 85.2071 58.6512 85.0942C58.7636 84.9814 58.9161 84.918 59.0751 84.918H63.6402C63.7991 84.918 63.9516 84.9814 64.064 85.0942C64.1765 85.2071 64.2396 85.3602 64.2396 85.5198C64.2396 85.6795 64.1765 85.8325 64.064 85.9454C63.9516 86.0583 63.7991 86.1217 63.6402 86.1217Z" fill="white"/>
<path d="M53.4262 64.2456H37.2766C36.9477 64.2452 36.6323 64.1138 36.3998 63.8803C36.1672 63.6469 36.0364 63.3303 36.036 63.0001V48.1976C36.0364 47.8674 36.1672 47.5508 36.3998 47.3173C36.6323 47.0838 36.9477 46.9525 37.2766 46.9521H53.4262C53.7551 46.9525 54.0704 47.0838 54.303 47.3173C54.5356 47.5508 54.6664 47.8674 54.6668 48.1976V63.0001C54.6664 63.3303 54.5356 63.6469 54.303 63.8803C54.0704 64.1138 53.7551 64.2452 53.4262 64.2456Z" fill="#14558F"/>
<path d="M42.0348 55.2033C43.1465 55.2033 44.0478 54.2984 44.0478 53.1822C44.0478 52.066 43.1465 51.1611 42.0348 51.1611C40.923 51.1611 40.0217 52.066 40.0217 53.1822C40.0217 54.2984 40.923 55.2033 42.0348 55.2033Z" fill="#14558F"/>
<path d="M50.0816 57.6578H40.6213C40.4623 57.6578 40.3098 57.5944 40.1974 57.4815C40.085 57.3686 40.0219 57.2156 40.0219 57.0559C40.0219 56.8963 40.085 56.7432 40.1974 56.6304C40.3098 56.5175 40.4623 56.4541 40.6213 56.4541H50.0816C50.2406 56.4541 50.3931 56.5175 50.5055 56.6304C50.6179 56.7432 50.6811 56.8963 50.6811 57.0559C50.6811 57.2156 50.6179 57.3686 50.5055 57.4815C50.3931 57.5944 50.2406 57.6578 50.0816 57.6578Z" fill="#14558F"/>
<path d="M45.1863 60.0358H40.6212C40.4622 60.0358 40.3097 59.9723 40.1973 59.8595C40.0849 59.7466 40.0217 59.5935 40.0217 59.4339C40.0217 59.2743 40.0849 59.1212 40.1973 59.0083C40.3097 58.8954 40.4622 58.832 40.6212 58.832H45.1863C45.3453 58.832 45.4978 58.8954 45.6102 59.0083C45.7226 59.1212 45.7858 59.2743 45.7858 59.4339C45.7858 59.5935 45.7226 59.7466 45.6102 59.8595C45.4978 59.9723 45.3453 60.0358 45.1863 60.0358Z" fill="#14558F"/>
<path opacity="0.5" d="M53.4262 64.2456H37.2766C36.9477 64.2452 36.6323 64.1138 36.3998 63.8803C36.1672 63.6469 36.0364 63.3303 36.036 63.0001V48.1976C36.0364 47.8674 36.1672 47.5508 36.3998 47.3173C36.6323 47.0838 36.9477 46.9525 37.2766 46.9521H53.4262C53.7551 46.9525 54.0704 47.0838 54.303 47.3173C54.5356 47.5508 54.6664 47.8674 54.6668 48.1976V63.0001C54.6664 63.3303 54.5356 63.6469 54.303 63.8803C54.0704 64.1138 53.7551 64.2452 53.4262 64.2456Z" fill="#14558F"/>
<path d="M42.0348 55.2033C43.1465 55.2033 44.0478 54.2984 44.0478 53.1822C44.0478 52.066 43.1465 51.1611 42.0348 51.1611C40.923 51.1611 40.0217 52.066 40.0217 53.1822C40.0217 54.2984 40.923 55.2033 42.0348 55.2033Z" fill="white"/>
<path d="M50.0816 57.6578H40.6213C40.4623 57.6578 40.3098 57.5944 40.1974 57.4815C40.085 57.3686 40.0219 57.2156 40.0219 57.0559C40.0219 56.8963 40.085 56.7432 40.1974 56.6304C40.3098 56.5175 40.4623 56.4541 40.6213 56.4541H50.0816C50.2406 56.4541 50.3931 56.5175 50.5055 56.6304C50.6179 56.7432 50.6811 56.8963 50.6811 57.0559C50.6811 57.2156 50.6179 57.3686 50.5055 57.4815C50.3931 57.5944 50.2406 57.6578 50.0816 57.6578Z" fill="white"/>
<path d="M45.1863 60.0358H40.6212C40.4622 60.0358 40.3097 59.9723 40.1973 59.8595C40.0849 59.7466 40.0217 59.5935 40.0217 59.4339C40.0217 59.2743 40.0849 59.1212 40.1973 59.0083C40.3097 58.8954 40.4622 58.832 40.6212 58.832H45.1863C45.3453 58.832 45.4978 58.8954 45.6102 59.0083C45.7226 59.1212 45.7858 59.2743 45.7858 59.4339C45.7858 59.5935 45.7226 59.7466 45.6102 59.8595C45.4978 59.9723 45.3453 60.0358 45.1863 60.0358Z" fill="white"/>
<path d="M37.6098 50.1462C39.3934 50.1462 40.8394 48.6944 40.8394 46.9036C40.8394 45.1129 39.3934 43.6611 37.6098 43.6611C35.8261 43.6611 34.3801 45.1129 34.3801 46.9036C34.3801 48.6944 35.8261 50.1462 37.6098 50.1462Z" fill="#FF6584"/>
<path d="M46.4723 114.817C46.4723 114.841 46.4677 114.865 46.4585 114.887C46.4493 114.909 46.4358 114.93 46.4188 114.947C46.4018 114.964 46.3816 114.977 46.3594 114.986C46.3371 114.996 46.3133 115 46.2892 115H3.18301C3.13447 115 3.08792 114.981 3.0536 114.946C3.01928 114.912 3 114.865 3 114.817C3 114.768 3.01928 114.721 3.0536 114.687C3.08792 114.652 3.13447 114.633 3.18301 114.633H46.2892C46.3133 114.633 46.3371 114.637 46.3594 114.647C46.3816 114.656 46.4018 114.669 46.4188 114.686C46.4358 114.704 46.4493 114.724 46.4585 114.746C46.4677 114.768 46.4723 114.792 46.4723 114.817Z" fill="#CCCCCC"/>
<path d="M36.9194 55.4924C37.0522 55.8651 37.0338 56.2753 36.8681 56.6344C36.7024 56.9936 36.4028 57.273 36.0338 57.4124C35.9522 57.4431 35.868 57.4663 35.7823 57.482L34.9293 62.7256L32.9285 60.8708L34.0452 56.1758C34.0039 55.7802 34.1193 55.3841 34.3665 55.0732C34.6137 54.7623 34.9728 54.5616 35.3662 54.5145C35.6972 54.4764 36.0313 54.5524 36.3135 54.7301C36.5958 54.9078 36.8094 55.1766 36.9194 55.4924L36.9194 55.4924Z" fill="#FFB6B6"/>
<path d="M22.1532 67.3734C22.1532 67.3734 23.7061 65.3134 29.3412 65.3698L32.5398 64.2031L33.2708 57.4756L35.8292 58.0872L35.4637 66.4048L29.9813 69.585L22.7933 71.0528L22.1532 67.3734Z" fill="#3F3D56"/>
<path d="M21.3281 63.0821C23.1753 63.0821 24.6727 61.5787 24.6727 59.7241C24.6727 57.8696 23.1753 56.3662 21.3281 56.3662C19.4809 56.3662 17.9835 57.8696 17.9835 59.7241C17.9835 61.5787 19.4809 63.0821 21.3281 63.0821Z" fill="#FFB6B6"/>
<path d="M15.6673 85.1844C15.6614 85.1844 15.6555 85.1836 15.6498 85.182C15.588 85.1647 15.5393 85.1511 15.7621 83.2165L16.0026 81.6874L15.7678 80.3371L15.3729 79.9406L16.0076 79.3034L16.5403 77.7844L15.6186 76.4132L14.5612 70.8058C14.3794 69.8382 14.5207 68.8374 14.9631 67.9586C15.4055 67.0798 16.1243 66.3722 17.0081 65.9453L18.232 65.5863L18.6773 64.7664C18.8023 64.5362 18.9864 64.3438 19.2105 64.209C19.4346 64.0743 19.6905 64.0022 19.9517 64.0003L22.1928 63.9834C22.4189 63.9817 22.6424 64.0326 22.8456 64.1322C23.0488 64.2317 23.2264 64.3771 23.3642 64.5571L24.1461 65.5775L27.3884 66.6833L26.8508 78.3134C26.9362 78.3851 27.0059 78.4739 27.0553 78.574C27.1048 78.6742 27.133 78.7836 27.1382 78.8953C27.1434 79.007 27.1255 79.1185 27.0855 79.2229C27.0455 79.3272 26.9844 79.4221 26.9061 79.5016C26.8724 79.5357 26.8456 79.5635 26.8291 79.5819C26.7744 79.6598 26.877 80.2419 27.0036 80.7361L27.166 81.4929C27.1139 81.5303 27.0701 81.5781 27.0373 81.6334C27.0045 81.6886 26.9835 81.7501 26.9756 81.8139C26.9677 81.8777 26.973 81.9425 26.9913 82.0042C27.0096 82.0658 27.0404 82.123 27.0818 82.1721L27.2889 82.4176C27.3298 82.7256 27.2474 83.0372 27.0598 83.2843C26.8722 83.5313 26.5947 83.6936 26.2881 83.7355C23.3249 84.1404 15.6828 85.1844 15.6673 85.1844Z" fill="#3F3D56"/>
<path d="M20.4726 62.9174C20.4583 62.8858 20.444 62.8541 20.4298 62.8223C20.4353 62.8224 20.4407 62.8232 20.4462 62.8234L20.4726 62.9174Z" fill="#2F2E41"/>
<path d="M17.8906 56.519C18.0494 56.3685 18.2558 56.2789 18.4738 56.2658C18.69 56.2728 18.9094 56.4689 18.8646 56.6815C19.2618 55.9753 19.8941 55.4322 20.6505 55.1474C21.4069 54.8627 22.239 54.8545 23.0007 55.1243C23.5383 55.3147 24.0654 55.6957 24.1889 56.2543C24.2009 56.401 24.2445 56.5433 24.3166 56.6715C24.3791 56.74 24.4602 56.7886 24.5499 56.8114C24.6396 56.8343 24.7339 56.8302 24.8214 56.7999L24.8267 56.7983C24.8566 56.788 24.8889 56.787 24.9194 56.7954C24.9499 56.8038 24.9772 56.8212 24.9978 56.8453C25.0184 56.8694 25.0312 56.8992 25.0348 56.9307C25.0383 56.9623 25.0323 56.9942 25.0176 57.0223L24.8655 57.3071C25.0573 57.35 25.2565 57.3457 25.4462 57.2947C25.4777 57.2864 25.511 57.2881 25.5415 57.2995C25.5721 57.311 25.5983 57.3316 25.6167 57.3586C25.635 57.3857 25.6446 57.4177 25.6441 57.4504C25.6436 57.4831 25.6331 57.5149 25.6139 57.5413C25.3611 57.8885 25.0311 58.1717 24.6502 58.3683C24.2692 58.5649 23.8478 58.6695 23.4195 58.6738C22.8118 58.6701 22.1978 58.4598 21.6064 58.6001C21.3776 58.6544 21.1638 58.7594 20.9807 58.9075C20.7976 59.0555 20.6498 59.2428 20.5483 59.4557C20.4467 59.6686 20.3939 59.9016 20.3937 60.1376C20.3935 60.3736 20.4459 60.6067 20.5471 60.8198C20.3655 60.6202 20.0142 60.6675 19.8284 60.8631C19.7428 60.9678 19.6795 61.0891 19.6425 61.2193C19.6055 61.3496 19.5955 61.4861 19.6131 61.6204C19.6627 62.0318 19.7843 62.431 19.9724 62.7999C19.2538 62.7777 18.5593 62.5346 17.9827 62.1034C17.4061 61.6722 16.9752 61.0738 16.7481 60.3889C16.5211 59.704 16.509 58.9656 16.7133 58.2736C16.9176 57.5815 17.3285 56.969 17.8906 56.519L17.8906 56.519Z" fill="#2F2E41"/>
<path d="M16.9704 90.0011C16.6506 89.7695 16.4343 89.4211 16.3681 89.0309C16.3018 88.6407 16.391 88.24 16.6163 87.9152C16.6663 87.8435 16.7225 87.7764 16.7843 87.7147L14.5273 82.9092L17.2228 83.299L18.9528 87.8027C19.2102 88.1051 19.3386 88.4971 19.3104 88.8939C19.2822 89.2907 19.0996 89.6604 18.8021 89.9231C18.5509 90.1428 18.2327 90.2702 17.8999 90.2844C17.567 90.2985 17.2392 90.1986 16.9704 90.0011H16.9704Z" fill="#FFB6B6"/>
<path d="M16.2869 87.3767L12.6955 79.273L12.6595 72.8726L13.7916 69.4154C13.9452 68.9464 14.1909 68.513 14.5141 68.1409C14.8374 67.7688 15.2317 67.4655 15.6736 67.2491C16.1156 67.0326 16.5964 66.9072 17.0874 66.8804C17.5785 66.8537 18.0699 66.926 18.5326 67.0931L18.5575 67.1021L18.568 67.1266C18.6098 67.2247 19.5593 69.5826 16.7429 74.4334L16.1761 77.7526L18.165 85.3607L16.2869 87.3767Z" fill="#3F3D56"/>
</g>
<path d="M53.2505 96.5349C52.4098 96.5349 51.588 96.2846 50.889 95.8157C50.1901 95.3468 49.6453 94.6803 49.3236 93.9005C49.0018 93.1208 48.9177 92.2627 49.0817 91.4349C49.2457 90.6071 49.6505 89.8467 50.2449 89.2499C50.8394 88.6531 51.5967 88.2467 52.4213 88.082C53.2458 87.9173 54.1004 88.0018 54.8771 88.3248C55.6538 88.6478 56.3176 89.1948 56.7847 89.8966C57.2517 90.5984 57.501 91.4234 57.501 92.2675C57.501 93.3993 57.0532 94.4847 56.256 95.285C55.4589 96.0853 54.3778 96.5349 53.2505 96.5349Z" fill="#14558F"/>
<path d="M52.8138 94.2412C52.6841 94.2414 52.5578 94.2031 52.4541 94.1321L52.4476 94.1277L51.0927 93.1822C51.0299 93.1384 50.9772 93.0836 50.9376 93.0212C50.898 92.9587 50.8723 92.8897 50.8619 92.8182C50.8515 92.7467 50.8567 92.674 50.8771 92.6043C50.8976 92.5346 50.9328 92.4692 50.981 92.412C51.0291 92.3547 51.0891 92.3067 51.1576 92.2706C51.2261 92.2345 51.3017 92.211 51.3801 92.2016C51.4585 92.1922 51.5382 92.1969 51.6146 92.2156C51.691 92.2343 51.7626 92.2665 51.8254 92.3104L52.703 92.9243L54.7769 90.4562C54.825 90.399 54.885 90.351 54.9534 90.3149C55.0218 90.2788 55.0974 90.2554 55.1758 90.2459C55.2541 90.2365 55.3337 90.2412 55.4101 90.2599C55.4865 90.2785 55.558 90.3107 55.6208 90.3545L55.6209 90.3547L55.6081 90.371L55.6213 90.3547C55.7478 90.4434 55.8306 90.5743 55.8515 90.7186C55.8724 90.863 55.8296 91.009 55.7326 91.1246L53.2933 94.0263C53.2368 94.0932 53.1643 94.1473 53.0812 94.1845C52.9982 94.2216 52.9068 94.2408 52.8143 94.2406L52.8138 94.2412Z" fill="white"/>
<defs>
<clipPath id="clip0_1190_1293">
<rect width="138" height="86" fill="white" transform="translate(3 29)"/>
</clipPath>
</defs>
</svg>
