<svg width="161" height="144" viewBox="0 0 161 144" fill="none" xmlns="http://www.w3.org/2000/svg">
<g clip-path="url(#clip0_1190_1294)">
<path d="M152 72C152.009 79.8731 150.724 87.6941 148.198 95.1508C148.053 95.5768 147.904 96.0014 147.752 96.4246C145.077 103.824 141.207 110.736 136.298 116.885C134.833 118.723 133.28 120.486 131.64 122.172C129.999 123.861 128.278 125.468 126.474 126.993C116.414 135.524 104.193 141.111 91.1599 143.139H91.1577C89.4962 143.397 87.8183 143.598 86.1241 143.742C84.1069 143.913 82.0654 143.999 79.9999 144C70.3943 144.013 60.8839 142.097 52.0323 138.366C43.1807 134.636 35.1679 129.167 28.4688 122.283C27.998 121.801 27.5343 121.313 27.0778 120.817C25.9403 119.584 24.846 118.312 23.7952 117.002C23.2051 116.265 22.6292 115.517 22.0676 114.757C18.608 110.083 15.7296 105.006 13.4958 99.6369C12.5431 97.3503 11.7112 95.0153 11.0035 92.6414C10.9523 92.4731 10.9033 92.3049 10.8543 92.1366C10.7478 91.7744 10.6449 91.4102 10.5455 91.0438C8.85094 84.8379 7.99481 78.4331 7.9999 72C7.9999 32.236 40.2359 0 79.9999 0C119.764 0 152 32.236 152 72Z" fill="#14558F" fill-opacity="0.13"/>
<path d="M26.4218 92.8995C26.409 92.9186 26.3962 92.9378 26.3813 92.9591C25.9557 92.9318 25.5289 92.9311 25.1032 92.957C24.8604 92.9719 24.6175 92.9953 24.3747 93.0273C24.0696 93.07 23.7846 93.2038 23.5568 93.4112C23.3291 93.6186 23.1693 93.89 23.0984 94.1897C23.0275 94.4895 23.0488 94.8037 23.1594 95.0911C23.2701 95.3786 23.465 95.6259 23.7186 95.8008L23.7441 95.8178C23.7633 95.8306 23.7782 95.8412 23.7974 95.854C20.9634 98.3689 17.2839 99.7202 13.4958 99.6372C12.5432 97.3506 11.7113 95.0156 11.0035 92.6417C12.1615 91.5549 13.5794 90.7839 15.1212 90.4029C18.2099 89.6573 21.6566 90.4988 24.7474 90.192C26.2343 90.045 27.2674 91.6661 26.4218 92.8995Z" fill="white"/>
<path d="M29.1249 69.1644C29.1164 69.1879 29.1079 69.2134 29.0972 69.239C28.8544 69.2539 28.6116 69.2795 28.3687 69.3114C28.0638 69.3539 27.7788 69.4875 27.5511 69.6947C27.3234 69.9019 27.1636 70.1731 27.0927 70.4727C27.0218 70.7723 27.043 71.0863 27.1536 71.3736C27.2643 71.6609 27.4591 71.9081 27.7126 72.0828L27.7382 72.102C27.3364 72.7589 26.8849 73.3842 26.3877 73.9723C24.9815 75.6075 23.2526 76.9347 21.3095 77.8705C19.3664 78.8064 17.2508 79.3307 15.0956 79.4106C14.955 79.4149 14.8187 79.4191 14.6802 79.4191C14.3213 82.6319 13.5451 85.7841 12.3711 88.7962C11.9258 89.9359 11.4195 91.0509 10.8544 92.1363C10.7479 91.7742 10.6449 91.4099 10.5455 91.0435C10.5711 90.9945 10.5945 90.9476 10.618 90.8986C11.1807 89.7367 11.6779 88.544 12.1069 87.3263C12.4584 86.3273 12.7652 85.3155 13.0272 84.2908C14.443 78.726 14.519 72.9047 13.2487 67.3048C12.0997 65.698 11.4708 63.7777 11.4466 61.8025C11.4363 61.0914 11.5289 60.3826 11.7214 59.6979C11.8854 59.8066 12.058 59.9088 12.2284 60.0047C12.2816 60.0345 12.337 60.0643 12.3924 60.0941L12.4116 60.1048C12.6008 60.2072 12.8157 60.2527 13.0302 60.2358C13.2447 60.2189 13.4498 60.1403 13.6207 60.0095C13.7915 59.8786 13.921 59.7012 13.9933 59.4985C14.0656 59.2959 14.0778 59.0766 14.0284 58.8672C13.9985 58.7372 13.9666 58.6073 13.9368 58.4773C13.8899 58.2771 13.8409 58.0769 13.7962 57.8766C13.7885 57.8566 13.7828 57.8359 13.7791 57.8149C13.7259 57.5869 13.6705 57.3611 13.6172 57.1332C14.0419 56.8737 14.521 56.7162 15.0168 56.6731C16.723 56.5367 18.2994 57.9661 18.6764 59.634C19.0598 61.3041 18.4229 63.0807 17.3621 64.4227C16.4525 65.5708 15.2575 66.4506 14.0135 67.2345C14.0412 67.3623 14.0731 67.488 14.1008 67.6137C14.5979 69.9487 14.8661 72.3265 14.9017 74.7136C15.6601 72.4513 17.3025 70.0804 18.7893 68.7576C20.4828 67.2515 22.7152 66.3718 24.7943 65.3663C27.2887 64.1585 30.0537 66.5507 29.1249 69.1644Z" fill="white"/>
</g>
<g clip-path="url(#clip1_1190_1294)">
<path d="M114.279 112.28H27.5784C26.8059 112.279 26.0652 111.972 25.519 111.426C24.9727 110.879 24.6654 110.139 24.6646 109.367V38.7796C24.6654 38.0072 24.9727 37.2667 25.519 36.7205C26.0652 36.1743 26.8059 35.8671 27.5784 35.8662H114.279C115.052 35.8671 115.792 36.1743 116.338 36.7205C116.885 37.2667 117.192 38.0072 117.193 38.7796V109.367C117.192 110.139 116.885 110.879 116.338 111.426C115.792 111.972 115.052 112.279 114.279 112.28Z" fill="#E6E6E6"/>
<path d="M29.5443 37.9395C28.8001 37.9403 28.0867 38.2363 27.5605 38.7624C27.0344 39.2885 26.7384 40.0019 26.7375 40.7459V107.401C26.7384 108.145 27.0344 108.858 27.5606 109.384C28.0868 109.911 28.8002 110.206 29.5443 110.207H88.8875C95.8425 110.199 102.51 107.433 107.428 102.516C112.346 97.599 115.113 90.932 115.12 83.978V40.7459C115.12 40.0019 114.824 39.2885 114.298 38.7624C113.771 38.2363 113.058 37.9403 112.314 37.9395L29.5443 37.9395Z" fill="white"/>
<path d="M98.4691 67.9176H82.7482C82.4204 67.9173 82.106 67.7869 81.8742 67.5551C81.6423 67.3232 81.5119 67.0089 81.5115 66.6811V58.8576C81.5119 58.5298 81.6423 58.2155 81.8742 57.9837C82.106 57.7519 82.4204 57.6215 82.7482 57.6211H98.4691C98.797 57.6215 99.1113 57.7519 99.3432 57.9837C99.575 58.2155 99.7055 58.5298 99.7058 58.8576C100.679 61.6262 100.817 64.2568 99.7058 66.6811C99.7055 67.0089 99.575 67.3233 99.3432 67.5551C99.1113 67.7869 98.797 67.9173 98.4691 67.9176V67.9176Z" fill="#E6E6E6"/>
<path d="M96.6067 67.161H83.2502C82.9716 67.1607 82.7045 67.05 82.5075 66.853C82.3106 66.6561 82.1998 66.389 82.1995 66.1105V59.4636C82.1998 59.1851 82.3106 58.9181 82.5075 58.7211C82.7045 58.5242 82.9716 58.4134 83.2502 58.4131H96.6067C96.8853 58.4134 97.1523 58.5242 97.3493 58.7211C97.5463 58.9181 97.6571 59.1851 97.6574 59.4636C98.5588 61.8308 98.7038 64.0708 97.6574 66.1105C97.6571 66.389 97.5463 66.6561 97.3493 66.853C97.1523 67.05 96.8853 67.1607 96.6067 67.161V67.161Z" fill="white"/>
<path d="M95.8864 72.0156H85.2962C84.9846 72.016 84.6857 71.8928 84.465 71.6729C84.2444 71.453 84.1201 71.1545 84.1195 70.843C84.1189 70.5315 84.2421 70.2325 84.4619 70.0118C84.6818 69.7911 84.9803 69.6667 85.2918 69.666H95.8864C96.1976 69.6666 96.4959 69.7906 96.7158 70.0109C96.9356 70.2311 97.0591 70.5296 97.0591 70.8408C97.0591 71.152 96.9356 71.4505 96.7158 71.6707C96.4959 71.891 96.1976 72.015 95.8864 72.0156V72.0156Z" fill="#E6E6E6"/>
<path d="M99.3406 60.9968C99.3827 61.2149 99.4721 61.4211 99.6025 61.601C99.7329 61.7808 99.9012 61.9298 100.095 62.0376C100.29 62.1454 100.505 62.2093 100.727 62.2247C100.949 62.2402 101.171 62.2069 101.378 62.1272L107.646 69.4178L108.44 66.7264L102.226 60.0563C102.069 59.7168 101.792 59.4467 101.45 59.2973C101.107 59.1478 100.721 59.1292 100.365 59.2452C100.01 59.3611 99.7089 59.6035 99.52 59.9263C99.3312 60.2491 99.2673 60.63 99.3406 60.9968L99.3406 60.9968Z" fill="#FFB8B8"/>
<path d="M124.602 141.725H122.528L121.541 133.725H124.603L124.602 141.725Z" fill="#FFB6B6"/>
<path d="M124.547 141.047L122.332 140.146L122.269 140.12L121.046 141.047C120.355 141.047 119.693 141.321 119.205 141.809C118.717 142.298 118.443 142.96 118.443 143.65V143.734H125.131V141.047H124.547Z" fill="#2F2E41"/>
<path d="M139.4 141.725H137.326L136.339 133.725H139.4L139.4 141.725Z" fill="#FFB6B6"/>
<path d="M139.344 141.047L137.13 140.146L137.066 140.12L135.844 141.047C135.153 141.047 134.491 141.321 134.003 141.809C133.515 142.298 133.24 142.96 133.24 143.65V143.734H139.928V141.047H139.344Z" fill="#2F2E41"/>
<path d="M134.504 93.9531C134.504 93.9531 137.106 96.6595 137.106 98.8832C137.106 101.107 136.456 104.16 137.106 104.829C137.756 105.497 138.569 106.31 137.594 107.285C136.618 108.261 136.13 108.749 136.781 109.399C137.431 110.049 137.106 121.43 137.106 121.43L140.521 136.714H136.219L130.764 121.43L129.301 108.749L124.568 120.943L125.09 136.845L120.593 136.714L118.731 119.805C118.731 119.805 121.495 103.72 121.008 103.308C120.52 102.895 121.008 102.063 121.008 102.063L122.308 95.9042L134.504 93.9531Z" fill="#2F2E41"/>
<path d="M129.41 74.764C129.41 74.764 130.295 71.2784 126.219 70.2791C122.143 69.2797 110.493 67.9959 110.493 67.9959L104.605 61.749L102.61 64.646L109.21 72.847L124.85 76.0588L129.41 74.764Z" fill="#3F3D56"/>
<path d="M103.58 64.4325C103.763 64.1956 103.906 63.9306 104.003 63.6478L104.848 61.5733L104.628 61.5641C104.325 61.5071 104.013 61.5147 103.713 61.5866C103.413 61.6585 103.131 61.7931 102.887 61.9813C102.642 62.1696 102.44 62.4075 102.294 62.6793C102.148 62.951 102.061 63.2506 102.039 63.5584C102.011 63.8246 102.059 64.0933 102.177 64.3336C102.237 64.4527 102.324 64.556 102.432 64.6349C102.539 64.7138 102.664 64.7661 102.796 64.7875C102.945 64.7955 103.095 64.7674 103.231 64.7056C103.367 64.6438 103.487 64.5501 103.58 64.4325V64.4325Z" fill="#E6E6E6"/>
<path d="M121.478 96.7344L120.99 100.27C120.99 100.27 121.966 101.318 122.454 101.187C122.942 101.056 124.73 100.294 124.73 100.294C124.73 100.294 126.844 101.449 127.982 101.58C129.121 101.711 135.137 100.925 135.3 100.532C135.463 100.139 137.353 98.6013 137.353 98.6013L136.601 94.1152L121.478 96.7344Z" fill="#E6E6E6"/>
<path d="M137.321 84.3646C137.321 84.3646 136.908 87.774 137.233 88.0878C137.559 88.4 136.908 90.3754 136.258 91.6761C135.607 92.9768 136.746 93.1394 136.746 94.115C136.746 95.0905 137.233 98.6674 137.233 98.6674C137.233 98.6674 132.192 98.9926 131.379 98.1796C130.566 97.3667 129.265 98.0171 127.477 99.8055C125.688 101.594 121.803 100.131 120.99 99.3177C120.177 98.5048 121.623 95.5782 122.111 95.0108C122.598 94.4434 121.641 95.1002 121.153 93.302C120.665 91.5038 121.623 91.6761 122.436 90.8632C123.249 90.0503 122.436 88.587 121.785 87.1237C121.135 85.6604 121.623 74.767 121.623 72.1656C121.623 69.5642 125.2 69.2391 125.2 69.2391L126.617 67.4587L127.657 66.1499L129.696 66.0686L129.75 66.067L131.722 65.9873L132.68 67.1027L134.794 69.5642L137.233 70.052C139.185 70.7023 138.697 74.767 138.697 74.767L137.321 84.3646Z" fill="#3F3D56"/>
<path d="M129.596 65.3636C131.904 65.3636 133.776 63.4924 133.776 61.1842C133.776 58.876 131.904 57.0049 129.596 57.0049C127.287 57.0049 125.416 58.876 125.416 61.1842C125.416 63.4924 127.287 65.3636 129.596 65.3636Z" fill="#FFB6B6"/>
<path d="M134.442 59.7786C133.293 59.0737 133.44 57.2304 132.332 56.5867C131.782 56.2694 131.163 56.0897 130.528 56.063C129.893 56.0364 129.261 56.1635 128.685 56.4336C127.905 56.0998 126.97 56.3662 126.346 56.9688C125.722 57.5715 125.384 58.4606 125.285 59.3548C125.213 60.2531 125.277 61.1572 125.476 62.0363C125.538 61.6831 125.6 61.3299 125.662 60.9767L128.957 60.2566C128.665 60.5187 128.374 60.7807 128.082 61.0428C129.574 61.3825 131.14 61.1376 132.458 60.3586C133.892 61.0016 133.632 62.4456 132.373 64.3621C132.861 65.175 135.752 60.5819 134.442 59.7786Z" fill="#2F2E41"/>
<path d="M132.68 67.1025C132.671 67.1101 132.661 67.1172 132.651 67.1237C132.307 67.3291 131.912 67.4359 131.511 67.4326C130.986 67.4764 130.465 67.313 130.059 66.9773C129.846 66.7757 128.999 67.2017 128.443 67.4375C127.859 67.6792 127.205 67.6867 126.617 67.4586L127.657 66.1498L129.372 65.7695H129.801L131.723 65.9872L132.68 67.1025Z" fill="#E6E6E6"/>
<path d="M160.746 143.935L102.562 144C102.529 144.001 102.495 143.994 102.464 143.981C102.433 143.969 102.405 143.95 102.381 143.927C102.358 143.903 102.339 143.875 102.326 143.844C102.313 143.813 102.306 143.78 102.306 143.747C102.306 143.713 102.312 143.68 102.325 143.649C102.337 143.618 102.356 143.59 102.38 143.566C102.403 143.542 102.431 143.523 102.462 143.511C102.493 143.498 102.526 143.491 102.559 143.491H102.562L160.746 143.425C160.814 143.425 160.878 143.452 160.926 143.5C160.973 143.548 161 143.612 161 143.68C161 143.747 160.973 143.812 160.926 143.859C160.878 143.907 160.814 143.934 160.746 143.935V143.935Z" fill="#CACACA"/>
<path d="M91.0787 58.3306H90.6505V27.708H107.492V28.1362H91.0787V58.3306Z" fill="#3F3D56"/>
<path d="M120.589 25H109.241C108.503 25 107.795 25.2932 107.273 25.8151C106.751 26.3371 106.458 27.0449 106.458 27.783C106.458 28.5211 106.751 29.229 107.273 29.7509C107.795 30.2729 108.503 30.5661 109.241 30.5661H120.589C121.328 30.5661 122.036 30.2729 122.558 29.7509C123.08 29.229 123.373 28.5211 123.373 27.783C123.373 27.0449 123.08 26.3371 122.558 25.8151C122.036 25.2932 121.328 25 120.589 25V25Z" fill="#14558F"/>
<path d="M90.6161 61.1323C92.0287 61.1323 93.1739 59.9873 93.1739 58.5749C93.1739 57.1626 92.0287 56.0176 90.6161 56.0176C89.2035 56.0176 88.0584 57.1626 88.0584 58.5749C88.0584 59.9873 89.2035 61.1323 90.6161 61.1323Z" fill="#14558F"/>
<path d="M59.7948 68.1849L71.0155 65.5887L74.2362 64.8435C74.6391 64.7503 74.4718 64.1301 74.0687 64.2234L62.848 66.8196L59.6273 67.5648C59.2244 67.658 59.3917 68.2781 59.7948 68.1849H59.7948Z" fill="#F2F2F2"/>
<path d="M71.3817 61.4234L77.3885 64.1862C77.5935 64.2571 77.7855 64.361 77.9569 64.4939C78.1227 64.6562 78.002 64.8124 77.8667 64.9539C77.4625 65.3313 77.0355 65.6837 76.5881 66.009L74.029 68.0893C73.7078 68.3504 74.1611 68.8061 74.4793 68.5474L76.7082 66.7356L77.8227 65.8296C78.1384 65.573 78.5228 65.311 78.6497 64.9022C78.9162 64.0432 77.8642 63.7016 77.2796 63.4327L74.6637 62.2296L71.7087 60.8705C71.3363 60.6992 71.0063 61.2508 71.3817 61.4234V61.4234Z" fill="#F2F2F2"/>
<path d="M136.913 91.0692L135.077 91.4078C134.986 91.4243 134.893 91.404 134.817 91.3516C134.741 91.2991 134.689 91.2187 134.672 91.128C134.655 91.0373 134.675 90.9437 134.727 90.8676C134.78 90.7916 134.86 90.7393 134.95 90.7222L136.787 90.3835C136.878 90.367 136.971 90.3872 137.047 90.4397C137.123 90.4921 137.175 90.5725 137.192 90.6633C137.209 90.7541 137.189 90.8478 137.137 90.9239C137.084 90.9999 137.004 91.0522 136.913 91.0692V91.0692Z" fill="#E6E6E6"/>
<path d="M135.583 99.8174C136.388 99.669 136.92 98.8963 136.772 98.0915C136.623 97.2867 135.85 96.7547 135.045 96.9031C134.241 97.0516 133.708 97.8242 133.857 98.629C134.005 99.4338 134.778 99.9658 135.583 99.8174Z" fill="#D1D3D4"/>
<path d="M54.0287 67.5214H40.5684C39.9436 67.5207 39.3445 67.2722 38.9027 66.8304C38.4608 66.3886 38.2123 65.7897 38.2115 65.1649V56.295C38.2123 55.6702 38.4608 55.0713 38.9027 54.6295C39.3445 54.1877 39.9436 53.9392 40.5684 53.9385H54.0287C54.6536 53.9392 55.2526 54.1877 55.6944 54.6295C56.1363 55.0713 56.3848 55.6702 56.3856 56.295V65.1649C56.3848 65.7897 56.1363 66.3886 55.6944 66.8304C55.2526 67.2722 54.6536 67.5207 54.0287 67.5214V67.5214Z" fill="#14558F"/>
<path d="M52.5495 67.0431H40.8349C40.291 67.0425 39.7697 66.8262 39.3851 66.4417C39.0006 66.0572 38.7843 65.536 38.7836 64.9922V57.2726C38.7843 56.7289 39.0006 56.2076 39.3851 55.8231C39.7697 55.4386 40.291 55.2223 40.8349 55.2217H52.5495C53.0934 55.2223 53.6147 55.4386 53.9993 55.8231C54.3838 56.2076 54.6001 56.7289 54.6008 57.2726V64.9922C54.6001 65.536 54.3838 66.0573 53.9993 66.4417C53.6147 66.8262 53.0934 67.0425 52.5495 67.0431V67.0431Z" fill="white"/>
<path d="M55.9246 75.5119H38.6533C38.5466 75.5117 38.4443 75.4691 38.3689 75.3936C38.2935 75.3181 38.2512 75.2157 38.2512 75.109C38.2512 75.0023 38.2935 74.8999 38.3689 74.8244C38.4443 74.7489 38.5466 74.7063 38.6533 74.7061H55.9246C56.0313 74.7063 56.1336 74.7489 56.2089 74.8244C56.2843 74.8999 56.3267 75.0023 56.3267 75.109C56.3267 75.2157 56.2843 75.3181 56.2089 75.3936C56.1336 75.4691 56.0313 75.5117 55.9246 75.5119V75.5119Z" fill="#E6E6E6"/>
<path d="M55.9246 73.2102H38.6533C38.5466 73.2099 38.4443 73.1674 38.3689 73.0918C38.2935 73.0163 38.2512 72.9139 38.2512 72.8072C38.2512 72.7005 38.2935 72.5982 38.3689 72.5226C38.4443 72.4471 38.5466 72.4045 38.6533 72.4043H55.9246C56.0313 72.4045 56.1336 72.4471 56.2089 72.5226C56.2843 72.5982 56.3267 72.7005 56.3267 72.8072C56.3267 72.9139 56.2843 73.0163 56.2089 73.0918C56.1336 73.1674 56.0313 73.2099 55.9246 73.2102V73.2102Z" fill="#E6E6E6"/>
<path d="M55.9246 77.8147H38.6533C38.5464 77.8147 38.4439 77.7722 38.3683 77.6967C38.2928 77.6211 38.2503 77.5186 38.2503 77.4117C38.2503 77.3049 38.2928 77.2024 38.3683 77.1268C38.4439 77.0512 38.5464 77.0088 38.6533 77.0088H55.9246C56.0315 77.0088 56.134 77.0512 56.2096 77.1268C56.2852 77.2024 56.3276 77.3049 56.3276 77.4117C56.3276 77.5186 56.2852 77.6211 56.2096 77.6967C56.134 77.7722 56.0315 77.8147 55.9246 77.8147Z" fill="#E6E6E6"/>
<path d="M55.9246 80.1174H38.6533C38.5464 80.1174 38.4439 80.075 38.3683 79.9994C38.2928 79.9238 38.2503 79.8213 38.2503 79.7145C38.2503 79.6076 38.2928 79.5051 38.3683 79.4295C38.4439 79.354 38.5464 79.3115 38.6533 79.3115H55.9246C56.0315 79.3115 56.134 79.354 56.2096 79.4295C56.2852 79.5051 56.3276 79.6076 56.3276 79.7145C56.3276 79.8213 56.2852 79.9238 56.2096 79.9994C56.134 80.075 56.0315 80.1174 55.9246 80.1174V80.1174Z" fill="#E6E6E6"/>
<path d="M55.9246 82.4201H38.6533C38.5464 82.4201 38.4439 82.3777 38.3683 82.3021C38.2928 82.2266 38.2503 82.1241 38.2503 82.0172C38.2503 81.9103 38.2928 81.8078 38.3683 81.7323C38.4439 81.6567 38.5464 81.6143 38.6533 81.6143H55.9246C56.0315 81.6143 56.134 81.6567 56.2096 81.7323C56.2852 81.8078 56.3276 81.9103 56.3276 82.0172C56.3276 82.1241 56.2852 82.2266 56.2096 82.3021C56.134 82.3777 56.0315 82.4201 55.9246 82.4201Z" fill="#E6E6E6"/>
<path d="M55.9246 84.7219H38.6533C38.5466 84.7217 38.4443 84.6791 38.3689 84.6036C38.2935 84.528 38.2512 84.4257 38.2512 84.319C38.2512 84.2123 38.2935 84.1099 38.3689 84.0344C38.4443 83.9588 38.5466 83.9163 38.6533 83.916H55.9246C56.0313 83.9163 56.1336 83.9588 56.2089 84.0344C56.2843 84.1099 56.3267 84.2123 56.3267 84.319C56.3267 84.4257 56.2843 84.528 56.2089 84.6036C56.1336 84.6791 56.0313 84.7217 55.9246 84.7219V84.7219Z" fill="#E6E6E6"/>
<path d="M46.4255 79.4414H46.8537V95.9347H15.8812V95.5066H46.4255V79.4414Z" fill="#3F3D56"/>
<path d="M2.78343 98.6432H14.1313C14.8695 98.6432 15.5774 98.35 16.0994 97.8281C16.6214 97.3062 16.9147 96.5983 16.9147 95.8602C16.9147 95.1221 16.6214 94.4142 16.0994 93.8923C15.5774 93.3704 14.8695 93.0771 14.1313 93.0771H2.78343C2.04522 93.0771 1.33724 93.3704 0.815248 93.8923C0.293254 94.4142 0 95.1221 0 95.8602C0 96.5983 0.293254 97.3062 0.815248 97.8281C1.33724 98.35 2.04522 98.6432 2.78343 98.6432Z" fill="#14558F"/>
<path d="M46.9377 80.6841C48.3503 80.6841 49.4955 79.5391 49.4955 78.1267C49.4955 76.7143 48.3503 75.5693 46.9377 75.5693C45.5251 75.5693 44.38 76.7143 44.38 78.1267C44.38 79.5391 45.5251 80.6841 46.9377 80.6841Z" fill="#14558F"/>
<path d="M60.1579 78.838C63.9131 79.636 62.9579 79.7918 66.7131 80.5898L69.9467 81.2769C70.3512 81.3629 70.462 80.7302 70.0573 80.6442C66.3021 79.8462 67.2573 79.6904 63.5021 78.8924L60.2685 78.2053C59.864 78.1193 59.7533 78.752 60.1579 78.838H60.1579Z" fill="#F2F2F2"/>
<path d="M68.8071 76.9702L73.0809 82.0145C73.2367 82.1654 73.3667 82.3408 73.4658 82.5337C73.5473 82.751 73.3719 82.8415 73.1894 82.9124C72.6634 83.0834 72.1274 83.2221 71.5845 83.3276L68.3854 84.13C67.9838 84.2308 68.2018 84.8354 68.5996 84.7356L71.3859 84.0367L72.779 83.6873C73.1737 83.5883 73.6327 83.5136 73.9207 83.1967C74.5257 82.5312 73.717 81.7767 73.301 81.2857L71.4399 79.0891L69.3375 76.6076C69.0725 76.2948 68.5401 76.6551 68.8071 76.9703V76.9702Z" fill="#F2F2F2"/>
<path d="M82.3579 98.9587C85.6429 98.9587 88.3059 96.2961 88.3059 93.0116C88.3059 89.7271 85.6429 87.0645 82.3579 87.0645C79.0729 87.0645 76.4099 89.7271 76.4099 93.0116C76.4099 96.2961 79.0729 98.9587 82.3579 98.9587Z" fill="#E6E6E6"/>
<path d="M81.7781 98.2006C84.2755 98.2006 86.3 96.1764 86.3 93.6794C86.3 91.1824 84.2755 89.1582 81.7781 89.1582C79.2808 89.1582 77.2563 91.1824 77.2563 93.6794C77.2563 96.1764 79.2808 98.2006 81.7781 98.2006Z" fill="white"/>
<path d="M80.9668 96.7752C80.8641 96.7752 80.7627 96.7513 80.6709 96.7054C80.579 96.6594 80.4991 96.5927 80.4375 96.5105L78.8148 94.3472C78.7627 94.2778 78.7247 94.1987 78.7031 94.1145C78.6815 94.0304 78.6767 93.9428 78.6889 93.8568C78.7012 93.7708 78.7302 93.6881 78.7745 93.6133C78.8187 93.5385 78.8772 93.4732 78.9467 93.421C79.0162 93.3689 79.0953 93.3309 79.1794 93.3093C79.2636 93.2877 79.3512 93.2829 79.4372 93.2951C79.5232 93.3074 79.606 93.3365 79.6807 93.3807C79.7555 93.4249 79.8209 93.4834 79.873 93.5529L79.8734 93.5534L80.9351 94.9686L83.6617 90.8793C83.7098 90.8069 83.7718 90.7447 83.844 90.6962C83.9162 90.6478 83.9973 90.614 84.0825 90.5969C84.1678 90.5798 84.2556 90.5797 84.3409 90.5965C84.4262 90.6134 84.5074 90.6469 84.5797 90.6951C84.6521 90.7433 84.7142 90.8053 84.7626 90.8776C84.8109 90.9499 84.8446 91.0309 84.8616 91.1162C84.8786 91.2015 84.8786 91.2893 84.8616 91.3746C84.8447 91.4598 84.8111 91.5409 84.7627 91.6132L81.5174 96.4806C81.4586 96.5687 81.3797 96.6413 81.2871 96.6925C81.1945 96.7438 81.091 96.772 80.9852 96.775C80.979 96.7751 80.9729 96.7752 80.9668 96.7752Z" fill="#E6E6E6"/>
<path d="M137.898 99.1385C138.089 99.0259 138.254 98.8727 138.379 98.6897C138.505 98.5067 138.59 98.2982 138.626 98.0791C138.663 97.8601 138.651 97.6356 138.591 97.4216C138.532 97.2076 138.426 97.0092 138.282 96.8405L143.057 88.4961L140.255 88.6483L136.046 96.7345C135.779 96.996 135.617 97.3465 135.59 97.7195C135.564 98.0926 135.676 98.4623 135.904 98.7587C136.132 99.055 136.461 99.2573 136.829 99.3273C137.196 99.3974 137.576 99.3302 137.898 99.1385H137.898Z" fill="#FFB8B8"/>
<path d="M132.518 69.8896C132.518 69.8896 137.577 68.2638 138.877 72.1659C140.178 76.068 144.551 86.6362 144.551 86.6362L139.853 96.2288L137.739 93.9526L139.998 87.2865L133.494 77.5312L132.518 69.8896Z" fill="#3F3D56"/>
<path d="M140.014 95.2491C139.862 94.9915 139.669 94.7604 139.442 94.5649L137.828 93.0117L137.739 93.2119C137.573 93.4724 137.465 93.7649 137.42 94.0703C137.376 94.3756 137.396 94.687 137.481 94.9838C137.565 95.2807 137.711 95.5564 137.909 95.7929C138.107 96.0293 138.353 96.2213 138.631 96.356C138.868 96.4804 139.135 96.5356 139.402 96.5153C139.535 96.5037 139.663 96.4609 139.777 96.3902C139.89 96.3195 139.985 96.2231 140.053 96.1087C140.116 95.9728 140.145 95.8237 140.139 95.6741C140.132 95.5245 140.089 95.3788 140.014 95.2491V95.2491Z" fill="#E6E6E6"/>
<path d="M82.3064 101.013H81.8782V117.506H96.3642V117.078H82.3064V101.013Z" fill="#3F3D56"/>
<path d="M112.245 117.431C112.245 116.694 111.951 115.986 111.429 115.464C110.907 114.943 110.2 114.649 109.462 114.648H98.1141C97.3758 114.648 96.6679 114.942 96.1459 115.464C95.6239 115.985 95.3306 116.693 95.3306 117.431C95.3306 118.17 95.6239 118.877 96.1459 119.399C96.6679 119.921 97.3758 120.215 98.1141 120.215H109.462C110.2 120.214 110.907 119.92 111.429 119.399C111.951 118.877 112.245 118.169 112.245 117.431Z" fill="#14558F"/>
<path d="M81.7941 102.255C83.2066 102.255 84.3518 101.11 84.3518 99.698C84.3518 98.2856 83.2066 97.1406 81.7941 97.1406C80.3815 97.1406 79.2363 98.2856 79.2363 99.698C79.2363 101.11 80.3815 102.255 81.7941 102.255Z" fill="#14558F"/>
</g>
<defs>
<clipPath id="clip0_1190_1294">
<rect width="144" height="144" fill="white" transform="translate(8)"/>
</clipPath>
<clipPath id="clip1_1190_1294">
<rect width="161" height="119" fill="white" transform="translate(0 25)"/>
</clipPath>
</defs>
</svg>
