<svg xmlns="http://www.w3.org/2000/svg" width="86" height="52" viewBox="0 0 86 52">
  <g fill="none" fill-rule="evenodd">
    <path fill="#FFFFFF" fill-rule="nonzero" d="M52.0918258 7.03261562L55.13725 11.8492281 55.13725 7.04552188C55.13725 7.04552188 55.48025 6.80675625 56.3065682 6.80675625 57.1432803 6.80675625 57.4849811 7.04552188 57.4849811 7.04552188L57.4849811 15.3907031C57.4849811 15.3907031 57.1549735 15.6307594 56.3182614 15.6307594 55.5062348 15.6307594 55.174928 15.4165156 55.174928 15.4165156L52.1178106 10.6011938 52.1178106 15.3907031C52.1178106 15.3907031 51.7748106 15.6307594 50.9367992 15.6307594 50.1247727 15.6307594 49.7817727 15.3907031 49.7817727 15.3907031L49.7817727 7.04552188C49.7817727 7.04552188 50.1000871 6.80675625 50.9510909 6.80675625 51.7618182 6.80675625 52.0918258 7.03261562 52.0918258 7.03261562zM63.7018561 11.7976031L61.4814508 11.7976031 61.4814508 13.928425 64.6918788 13.928425C64.6918788 13.928425 64.9335379 14.1930031 64.9335379 14.7724937 64.9335379 15.3648906 64.6918788 15.6307594 64.6918788 15.6307594L59.1337197 15.6307594 59.1337197 6.80675625 64.4385265 6.80675625C64.4385265 6.80675625 64.6918788 7.072625 64.6918788 7.66502187 64.6918788 8.2445125 64.4385265 8.52199687 64.4385265 8.52199687L61.4814508 8.52199687 61.4814508 10.0862344 63.7018561 10.0862344C63.7018561 10.0862344 63.9435152 10.3637187 63.9435152 10.9432094 63.9422159 11.5459313 63.7018561 11.7976031 63.7018561 11.7976031zM67.7866742 15.3907031L65.3882727 7.04552187C65.3882727 7.04552187 65.7429659 6.80675625 66.5692841 6.80675625 67.4059962 6.80675625 67.737303 7.04552187 67.737303 7.04552187L68.943 11.2813531C69.0313485 11.5962656 69.0703258 11.8363219 69.1080038 11.9757094 69.1080038 11.9369906 69.1716667 11.58465 69.248322 11.2942594L70.3007083 7.04552187C70.3007083 7.04552187 70.706072 6.80675625 71.2790379 6.80675625 71.8247197 6.80675625 72.2053977 7.04552187 72.2053977 7.04552187L73.2071136 11.2813531 73.3721174 11.9757094C73.3721174 11.8608437 73.4487727 11.5459312 73.5241288 11.2942594L74.7675038 7.04552187C74.779197 7.04552187 75.1105038 6.80675625 75.9225303 6.80675625 76.7475492 6.80675625 77.1022424 7.04552187 77.1022424 7.04552187L74.6661629 15.3907031C74.6661629 15.3907031 74.3231629 15.6178531 73.5501136 15.6307594 72.6484394 15.6307594 72.3314242 15.3907031 72.3314242 15.3907031L71.3790795 11.5201187C71.3037235 11.2297281 71.2517538 10.9148156 71.2400606 10.851575L71.08675 11.5201187 70.1357045 15.3907031C70.1357045 15.3907031 69.805697 15.6307594 68.9676856 15.6307594 68.1426667 15.6307594 67.7866742 15.3907031 67.7866742 15.3907031zM51.3551553 18.0003469L52.3958485 19.8149656C52.7518409 20.433175 52.9428295 21.1262406 52.9675152 21.2140031 52.9935 21.1262406 53.170197 20.4460813 53.5391818 19.8149656L54.6045606 18.0003469C54.6045606 18.0003469 54.9215758 17.7731969 55.694625 17.7731969 56.5703144 17.7731969 56.9392992 18.0622969 56.9392992 18.0622969L54.1342348 22.8776188 54.1342348 26.3558531C54.1342348 26.3558531 53.8042273 26.5959094 52.9675152 26.5959094 52.141197 26.5959094 51.8124886 26.3558531 51.8124886 26.3558531L51.8124886 22.8401906 49.0074242 18.0622969C49.0074242 18.0622969 49.3894015 17.7731969 50.2637917 17.7731969 51.0121553 17.7731969 51.3551553 18.0003469 51.3551553 18.0003469zM61.1891212 26.6862531C58.1943674 26.6862531 56.8873295 24.9464906 56.8873295 22.19875 56.8873295 19.4497187 58.1943674 17.6854344 61.1891212 17.6854344 64.1721818 17.6854344 65.4909129 19.4497187 65.4909129 22.19875 65.4909129 24.9452 64.1721818 26.6862531 61.1891212 26.6862531zM61.1891212 24.9826281C62.4571818 24.9826281 63.1431818 23.8481688 63.1431818 22.1974594 63.1431818 20.5454594 62.4571818 19.3980938 61.1891212 19.3980938 59.9197614 19.3980938 59.2363598 20.5454594 59.2363598 22.1974594 59.2363598 23.8494594 59.9197614 24.9826281 61.1891212 24.9826281zM69.0950114 26.3571437C69.0950114 26.3571437 68.7520114 26.5972 67.914 26.5972 67.0889811 26.5972 66.7589735 26.3571437 66.7589735 26.3571437L66.7589735 18.1268281C66.7589735 18.1268281 67.7113182 17.6854344 69.462697 17.6854344 72.1144508 17.6854344 73.3461326 18.6934125 73.3461326 20.4576969 73.3461326 22.1974594 72.0001174 22.9021406 71.8364129 22.9163375L73.8918144 26.3081C73.6397614 26.4707187 72.9407689 26.5972 72.4717424 26.5972 71.8623977 26.5972 71.3803788 26.3829562 71.3803788 26.3829562L69.8329811 23.6984562C69.7433333 23.5087344 69.6160076 23.3706375 69.4016326 23.3706375L69.0963106 23.3706375 69.0963106 26.3571437 69.0950114 26.3571437zM69.7550265 19.3993844C69.3730492 19.3993844 69.0950114 19.4755312 69.0950114 19.4755312L69.0950114 21.6683031 69.7290417 21.6683031C70.6541023 21.6683031 71.0113939 21.0255719 71.0113939 20.5338437 71.0100947 19.8911125 70.5657538 19.3993844 69.7550265 19.3993844zM82.8747765 26.2939031C82.8747765 26.2939031 82.2784242 26.5972 81.3143864 26.5972 80.4893674 26.5972 80.1463674 26.3829562 80.1463674 26.3829562L77.1399205 22.3239406 77.1399205 26.3571437C77.1399205 26.3571437 76.8229053 26.5972 75.9848939 26.5972 75.1468826 26.5972 74.8051818 26.3571437 74.8051818 26.3571437L74.8051818 18.0132531C74.8051818 18.0132531 75.1468826 17.7731969 75.9848939 17.7731969 76.8099129 17.7731969 77.1399205 18.0132531 77.1399205 18.0132531L77.1399205 21.9341719 80.0463258 18.0003469C80.0463258 18.0003469 80.3880265 17.7731969 81.2130455 17.7731969 82.1640909 17.7731969 82.5460682 18.0868188 82.5460682 18.0868188L79.7033258 21.9328813 82.8747765 26.2939031zM55.7972652 29.3449406C55.9609697 30.1515812 55.5296212 30.7943125 55.0476023 30.9582219 54.5785758 30.6446 53.8302121 30.365825 53.0441705 30.365825 52.2438371 30.365825 51.8007955 30.6678312 51.8007955 31.0976094 51.8007955 31.501575 52.1684811 31.6396719 53.1455114 31.955875L54.3642008 32.3456438C55.6725379 32.7741312 56.4832652 33.4310594 56.4832652 34.8159 56.4832652 36.4175656 55.4178864 37.6526937 52.8284962 37.6526937 51.0134545 37.6526937 49.8961061 37.0473906 49.4907424 36.6447156 49.3634167 36.0523187 49.6934242 35.3076281 50.1650492 35.0688625 50.5704129 35.3721594 51.7761098 35.95165 53.0064924 35.95165 53.7431629 35.95165 54.1498258 35.6870719 54.1498258 35.2069594 54.1498258 34.867525 53.9328523 34.6532812 53.4261477 34.4880813L51.3837386 33.8711625C50.2910758 33.5304375 49.4673561 32.7496094 49.4673561 31.4757625 49.4673561 29.6598531 50.7107311 28.6531624 53.0064924 28.6531624 54.4642424 28.651875 55.3152462 29.0429344 55.7972652 29.3449406zM57.1159962 30.4548781C57.1159962 30.4548781 56.8743371 30.2032063 56.8743371 29.5979031 56.8743371 29.0184125 57.1159962 28.7409281 57.1159962 28.7409281L64.007178 28.7409281C64.007178 28.7409281 64.2488371 29.0055063 64.2488371 29.5979031 64.2488371 30.1903 64.007178 30.4548781 64.007178 30.4548781L61.7218106 30.4548781 61.7218106 37.324875C61.7218106 37.324875 61.3931023 37.5649313 60.5680833 37.5649313 59.7183788 37.5649313 59.3753788 37.324875 59.3753788 37.324875L59.3753788 30.4548781 57.1159962 30.4548781zM69.0053636 28.9667875L72.4327652 37.2861562C72.4327652 37.2861562 72.0910644 37.5649313 71.2257689 37.5649313 70.4267348 37.5649313 70.1097197 37.3377813 70.1097197 37.3377813L69.4873826 35.8871187 66.2262841 35.8871187 65.641625 37.3377813C65.641625 37.3377813 65.3129167 37.5649313 64.5255758 37.5649313 63.6628788 37.5649313 63.2938939 37.2861562 63.2938939 37.2861562L66.7212955 28.9667875C66.7212955 28.9667875 67.0370114 28.7396375 67.8620303 28.7396375 68.6883485 28.7396375 69.0053636 28.9667875 69.0053636 28.9667875zM66.9109848 34.1976906L68.8026818 34.1976906 68.1686515 32.6850781C68.0413258 32.3830719 67.876322 31.7648625 67.8633295 31.7016219 67.8386439 31.7648625 67.6476553 32.3817812 67.5346212 32.6850781L66.9109848 34.1976906zM71.7337727 30.4548781C71.7337727 30.4548781 71.4921136 30.2032063 71.4921136 29.5979031 71.4921136 29.0184125 71.7337727 28.7409281 71.7337727 28.7409281L78.6236553 28.7409281C78.6236553 28.7409281 78.8640152 29.0055063 78.8640152 29.5979031 78.8640152 30.1903 78.6236553 30.4548781 78.6236553 30.4548781L76.3382879 30.4548781 76.3382879 37.324875C76.3382879 37.324875 76.0095795 37.5649313 75.1845606 37.5649313 74.3348561 37.5649313 73.9918561 37.324875 73.9918561 37.324875L73.9918561 30.4548781 71.7337727 30.4548781zM84.4988295 33.731775L82.2784242 33.731775 82.2784242 35.8625969 85.4888523 35.8625969C85.4888523 35.8625969 85.7305114 36.127175 85.7305114 36.7066656 85.7305114 37.3003531 85.4888523 37.5649313 85.4888523 37.5649313L79.9306932 37.5649313 79.9306932 28.7409281 85.2355 28.7409281C85.2355 28.7409281 85.4888523 29.0055062 85.4888523 29.5979031 85.4888523 30.1773937 85.2355 30.4548781 85.2355 30.4548781L82.2784242 30.4548781 82.2784242 32.017825 84.4988295 32.017825C84.4988295 32.017825 84.7391894 32.2966 84.7391894 32.8760906 84.7391894 33.4788125 84.4988295 33.731775 84.4988295 33.731775z"/>
    <path fill="#FFFFFF" fill-rule="nonzero" d="M48.8242311 51.4972281C48.6956061 51.4972281 48.5578864 51.4727063 48.4240644 51.4004312 48.2239811 51.2920188 48.0849621 51.1113312 48.0329924 50.8932156 47.9732273 50.6415438 48.0394886 50.3614781 48.2213826 50.1033531L48.2798485 50.0181719C48.3396136 49.9317 48.400678 49.8452281 48.4695379 49.7677906 48.5474924 49.6813187 48.6267462 49.6206594 48.6943068 49.5780687 48.6462348 49.3160719 48.663125 49.0889219 48.6891098 48.8824219 48.7085985 48.7107687 48.7527727 48.5662187 48.7891515 48.4500625 48.8047424 48.4010187 48.8203333 48.3506844 48.8333258 48.2964781 48.9307689 47.88735 48.9931326 47.5091969 49.0269129 47.1387875 49.0567955 46.8070969 49.0528977 46.8019344 48.9944318 46.7270781 48.8151364 46.5063812 48.5137121 46.348925 48.1915 46.1811437 48.0368902 46.0998344 47.8835795 46.018525 47.7354659 45.9307625 46.8065076 45.3667594 45.8775492 44.8027562 44.9485909 44.2374625L44.6211818 44.0387062C44.5458258 43.9935344 44.4146023 43.9277125 44.2586932 43.8464031 43.2322917 43.3198281 42.5514886 42.9326406 42.4384545 42.3776719 42.4215644 42.2963625 42.3358144 42.1014781 42.27475 42.0072625 42.2344735 42.0046812 42.1279356 41.9969375 42.055178 41.9904844 41.717375 41.9633812 41.208072 41.9207906 40.8027083 41.496175 40.7208561 41.4097031 40.640303 41.3283937 40.564947 41.2522469 39.9984773 40.6779187 39.5099621 40.1823187 39.445 38.9510625 39.4359053 38.7897344 39.4372045 38.6245344 39.439803 38.4580437 39.445 37.9482469 39.4385038 37.6255906 39.230625 37.4178 39.1318826 37.3197125 38.9668788 37.2526 38.7745909 37.1751625 38.539428 37.0809469 38.2704848 36.9725344 38.0223295 36.767325 37.9456742 36.7027937 37.858625 36.6098687 37.7611818 36.5014594 37.6585417 36.3840094 37.5026326 36.2084844 37.3960947 36.1723469 36.6061553 35.900025 35.6590076 35.8767937 34.6754811 35.8767937L2.17233333 35.8522719C1.96835227 35.8522719 1.78515909 35.8729219 1.60846212 35.8935719 1.21479167 35.9387437.767852273 35.9890781.406662879 35.6702937.0571666667 35.3605437.00909469697 34.8868844.00779545455 34.4622687L.0051969697 32.2075469C.0051969697 32.0888094.0389772727 31.9713625.102640152 31.8706937.402765152 31.3931625.984825758 31.1376187 1.49932576 30.9117594 1.69161364 30.8278687 1.89039773 30.7401062 1.99693561 30.6704125 2.27367424 30.4884344 2.52182955 30.2445062 2.786875 29.9850906 2.98435985 29.7914969 3.18964015 29.59145 3.41830682 29.4056 3.73402273 29.1487656 4.09131439 28.9603344 4.43951136 28.7796469 4.73963636 28.6234812 5.02027273 28.4750594 5.21515909 28.3137312 5.35287879 28.1988656 5.45551894 28.0091437 5.57764773 27.7884469 5.70757197 27.5483906 5.85698485 27.27865 6.08954924 27.041175 6.34030303 26.7856312 6.65601894 26.6088156 6.93405682 26.4539406 7.57198485 26.0964375 7.55769318 26.0590094 7.45635227 25.8202437 7.40957955 25.70925 7.36410606 25.6124531 7.32382955 25.5272719 7.13673864 25.1271781 6.97693182 24.7825812 7.08476894 24.067575 7.09516288 23.9978812 7.10945455 23.9243156 7.12244697 23.8481687 7.14713258 23.7191062 7.19260606 23.4803406 7.16662121 23.4106469L7.16662121 23.4106469C7.16662121 23.4106469 7.15362879 23.4003219 7.12764394 23.3874156 7.10555682 23.3758 7.02630303 23.3770906 6.96783712 23.3783812 6.78204545 23.3770906 6.4403447 23.386125 6.1830947 23.0983156 5.9258447 22.8117969 5.94013636 22.4310625 5.98171212 22.1303469 6.02198864 21.8283406 6.00120076 21.6334562 5.98171212 21.4618031 5.90245833 20.7338906 6.14801515 20.3944562 6.99901894 20.0601844 9.54293561 19.0560781 11.6035341 18.7153531 13.4835379 18.9889656 13.5939735 19.0044531 13.7459848 18.9747687 13.9226818 18.9386312 14.1877273 18.8857156 14.5151364 18.8211844 14.8763258 18.8908781L16.8745606 19.26645C17.6917841 19.421325 18.09325 19.5749094 18.7064924 20.1311687 19.0209091 20.4163969 19.1482348 20.3854219 19.6926174 20.1931187 19.9654583 20.0976125 20.274678 19.9892 20.6514583 19.9388656 21.266 19.8588469 21.8415644 19.9117625 22.3976402 19.9646781 22.6470947 19.9879094 22.8991477 20.0124312 23.1525 20.0214656 23.4357348 20.0317906 23.7930265 19.9014375 24.1412235 19.7749562 24.2945341 19.7194594 24.4452462 19.6639625 24.5907614 19.6187906 24.915572 19.5194125 25.2195947 19.47295 25.5145227 19.4290687 25.6600379 19.4058375 25.805553 19.3851875 25.9523674 19.3555031 25.9627614 19.3374344 25.9731553 19.318075 25.9848485 19.2987156 26.0316212 19.2174062 26.0809924 19.1335156 26.1446553 19.0457531 26.4148977 18.6792156 26.8033712 18.4456125 27.1151894 18.2558906L27.2451136 18.1771625C27.5790189 17.9706625 27.873947 17.7809406 28.1052121 17.5460469 28.5248674 17.1162687 29.0822424 17.1459531 29.4525265 17.1640219 29.5811515 17.170475 29.7773371 17.1808 29.835803 17.1549875 30.0826591 17.046575 29.8656856 16.2915594 29.7357614 15.83855 29.6448144 15.5210562 29.5668598 15.2474437 29.5499697 14.9970625 29.5044962 14.2910906 29.8981667 13.7916187 30.2151818 13.3928156 30.4633371 13.0779031 30.6140492 12.8726937 30.6088523 12.6726469 30.6088523 12.6339281 30.5958598 12.5810125 30.5789697 12.5319687 30.3619962 12.6352187 30.0125 12.7681531 29.6149318 12.586175 28.9757045 12.2944937 28.6249091 11.2607031 28.8197955 10.6734687 28.9822008 10.1856125 29.4811098 9.87199062 29.8448977 9.64096875L29.9761212 9.55707812C30.2866402 9.35057812 30.6166477 9.17505312 30.9336629 9.00727187 31.3767045 8.77366875 31.7937614 8.55297187 32.1237689 8.26645312 32.2627879 8.14513437 32.3940114 8.02510625 32.5213371 7.90765937 32.8084697 7.64437187 33.1033977 7.37205 33.4528939 7.13070312 33.4775795 7.04165 33.4996667 6.87645 33.5139583 6.7680375 33.5425417 6.56411875 33.5698258 6.35116562 33.6451818 6.16789687 34.0011742 5.2864 34.8716667 4.59849687 35.6395189 3.9906125 35.8941705 3.789275 36.1358295 3.5982625 36.3255189 3.42531875 36.4450492 3.31561562 36.5632803 3.20462187 36.6815114 3.09491875 37.2505795 2.56447187 37.8378371 2.01595625 38.5524205 1.57714375 39.1318826 1.2235125 39.8880417.78211875 40.5935303.51883125 41.5263864.171653125 41.9681288.196175 42.8490152.246509375L43.0127197.25554375C44.6562614.34846875 46.3608674.305878125 48.0096061.264578125 48.8372235.243928125 49.6622424.2219875 50.4820644.216825 50.7029356.215534375 51.0394394.175525 51.3928333.13164375 52.5673485-.011615625 53.8964735-.175525 54.6526326.47236875 54.9696477.7434 55.142447 1.12155312 55.1528409 1.5694 55.1606364 1.92174062 55.0125227 2.18631875 54.9046856 2.3799125 54.8696061 2.4418625 54.8176364 2.53607812 54.8111402 2.56834375 54.8137386 2.55801875 54.8488182 2.61093437 54.8735038 2.64707187 54.9943333 2.82517812 55.2165038 3.15557812 55.1268561 3.6498875 55.0930758 3.83960937 55.0372083 4.0422375 54.9800417 4.24615625 54.9085833 4.50557187 54.8332273 4.77273125 54.8280303 4.97535937 54.8163371 5.3277 54.5123144 5.6116375 54.1641174 5.5909875 53.8094242 5.57937187 53.5313864 5.28510937 53.5430795 4.93147812 53.556072 4.5791375 53.6548144 4.22034375 53.7431629 3.90543125 53.7899356 3.73894062 53.8354091 3.57632187 53.8639924 3.42015625 53.856197 3.42015625 53.8302121 3.39047187 53.808125 3.35691562 53.7041856 3.20204062 53.5274886 2.942625 53.5274886 2.5606 53.5274886 2.21084062 53.6756023 1.94884375 53.7821402 1.75654062 53.8146212 1.6984625 53.8639924 1.61199062 53.8717879 1.58101562 53.8665909 1.48034687 53.8341098 1.45195312 53.8159205 1.43646562 53.4911098 1.15769062 52.2308447 1.31256562 51.5539394 1.39645625 51.1602689 1.44420937 50.7886856 1.49067187 50.4937576 1.4919625 49.6817311 1.497125 48.8632083 1.51648437 48.0459848 1.53713437 46.3712614 1.579725 44.6393712 1.62489687 42.9451591 1.5281L42.7788561 1.517775C41.9499394 1.47002187 41.7277689 1.45711562 41.0495644 1.71007812 40.4402197 1.93722812 39.7204394 2.36055312 39.230625 2.65997812 38.625178 3.0303875 38.110678 3.51179062 37.5649962 4.02029687 37.4428674 4.13387187 37.3220379 4.24744687 37.1986098 4.35973125 36.9725417 4.56494062 36.7152917 4.76885937 36.44375 4.98439375 35.7993258 5.49419062 35.0704508 6.06980937 34.8404848 6.64026562 34.8248939 6.68672812 34.8041061 6.83515 34.7911136 6.9332375 34.7365455 7.34365625 34.6676856 7.85603437 34.2467311 8.13480937 33.9479053 8.33356562 33.6802614 8.58136562 33.3970265 8.84078125 33.2619053 8.96597187 33.1215871 9.09374375 32.9734735 9.22280625 32.5330303 9.6074125 32.0289242 9.87328125 31.5404091 10.1314062 31.2376856 10.2914437 30.9518523 10.4424469 30.6959015 10.6128094 30.650428 10.645075 30.5945606 10.6786312 30.5360947 10.7147687 30.4152652 10.7909156 30.1489205 10.9586969 30.0540758 11.0658187 30.0618712 11.1380937 30.0904545 11.2426344 30.1281326 11.326525 30.2853409 11.2516687 30.5049129 11.1600344 30.7686591 11.181975 31.5196212 11.2452156 31.8808106 12.069925 31.8964015 12.6352187 31.9145909 13.308925 31.5339129 13.7916187 31.2272917 14.176225 30.9765379 14.4963 30.8206288 14.7028 30.8336212 14.9131719 30.8414167 15.0254562 30.9102765 15.2693844 30.9726402 15.4849187 31.2013068 16.282525 31.6261591 17.7654531 30.3542008 18.3191312 30.0163977 18.4675531 29.6669015 18.4481937 29.3849659 18.4339969 29.2654356 18.4275437 29.0653523 18.4185094 29.0094848 18.4417406 28.6924697 18.7682687 28.3143902 19.0121969 27.9259167 19.2548344L27.7842992 19.3413062C27.5465379 19.4845656 27.3009811 19.6342781 27.1814508 19.7956062 27.1502689 19.8369062 27.1255833 19.8820781 27.102197 19.9233781 26.9826667 20.1324594 26.7825833 20.4822187 26.2537917 20.5919219 26.0705985 20.6306406 25.8900038 20.6590344 25.7081098 20.6861375 25.4495606 20.7248562 25.2040038 20.7622844 24.9714394 20.8332687 24.8467121 20.8732781 24.7154886 20.9197406 24.5829659 20.9687844 24.138625 21.1314031 23.6332197 21.3172531 23.0992311 21.2927312 22.8224924 21.2824062 22.5483523 21.2565937 22.2742121 21.2307812 21.7675076 21.1817375 21.2867879 21.1365656 20.8190606 21.1998062 20.574803 21.2320719 20.3539318 21.3095094 20.1187689 21.3921094 19.5341098 21.5973187 18.7337765 21.878675 17.8385985 21.0681625 17.4436288 20.7106594 17.2851212 20.6383844 16.6316023 20.515775L14.6346667 20.1402031C14.5164356 20.1182625 14.3566288 20.1492375 14.1721364 20.1866656 13.929178 20.2344187 13.6277538 20.2924969 13.2990455 20.247325 11.6477083 20.0072687 9.79758712 20.3234719 7.47324242 21.2423969 7.37839773 21.279825 7.30953788 21.3095094 7.26016667 21.3327406 7.28095455 21.5095562 7.30693939 21.7625187 7.27575758 22.1122781 7.41217803 22.1303469 7.56548864 22.1703562 7.7265947 22.2542469 8.63996212 22.7317781 8.46846212 23.6416687 8.38660985 24.0804812 8.37491667 24.13985 8.36322348 24.1992187 8.35542803 24.2572969 8.30475758 24.5915687 8.33593939 24.6599719 8.48925 24.9865 8.53602273 25.0858781 8.58669318 25.1968719 8.64126136 25.3259344 9.19863636 26.6501156 8.13455682 27.2450937 7.56159091 27.5638781 7.34981439 27.6826156 7.12894318 27.8039344 7.00941288 27.9278344 6.90027652 28.0401187 6.80543182 28.2130625 6.70539015 28.3963312 6.54688258 28.6880125 6.36498864 29.0184125 6.04277652 29.2881531 5.74135227 29.5385344 5.38406061 29.7269656 5.03976136 29.9063625 4.73573864 30.0651094 4.44730682 30.2161125 4.23163258 30.3916375 4.05103788 30.5400594 3.87564015 30.7104219 3.69114773 30.8924 3.39362121 31.1827906 3.08959848 31.4835062 2.70502273 31.7338875 2.50753788 31.86295 2.26977652 31.9674906 2.01902273 32.0771937 1.81374242 32.1662469 1.4668447 32.3185406 1.29014773 32.4488937L1.29404545 34.4596875C1.29404545 34.5332531 1.2953447 34.5939125 1.29924242 34.640375 1.35251136 34.6352125 1.41097727 34.6287594 1.46034848 34.6235969 1.65393561 34.6016562 1.89429545 34.5745531 2.17233333 34.5745531L34.6754811 34.599075C35.7291667 34.599075 36.8400189 34.6287594 37.8144508 34.9643219 38.2406023 35.1088719 38.5342311 35.4392719 38.7265189 35.6560969 38.7706932 35.7077219 38.8096705 35.7541844 38.8460492 35.7851594 38.9395947 35.8613062 39.0864091 35.920675 39.2566098 35.9890781 39.525553 36.0974906 39.8594583 36.2317156 40.1439924 36.5156531 40.7416439 37.1119219 40.7325492 37.8656469 40.726053 38.47095 40.7221553 38.6103375 40.7221553 38.7484344 40.7286515 38.8826594 40.768928 39.6312219 40.9781061 39.8428844 41.4835114 40.3552625 41.5640644 40.4365719 41.6485152 40.5230437 41.7381629 40.6159687 41.8005265 40.6817906 41.9395455 40.6959875 42.1617159 40.7153469 42.4306591 40.7372875 42.7645644 40.7631 43.0581932 40.9812156 43.3778068 41.2174 43.5947803 41.7426844 43.6740341 42.0162969 43.8741174 42.2073094 44.5757083 42.5686844 44.8511477 42.7093625 45.0421364 42.80745 45.2019432 42.8913406 45.2941894 42.9468375L45.6215985 43.1455937C46.5492576 43.7083062 47.4769167 44.2723094 48.405875 44.8363125 48.529303 44.9098781 48.657928 44.9782812 48.7891515 45.0466844 49.1945152 45.2570562 49.6518485 45.4971125 49.9961477 45.9243094 50.372928 46.390225 50.3469432 46.8122594 50.3118636 47.1839594 50.3664318 47.082 50.426197 46.9839125 50.4963561 46.8896969 50.6236818 46.7115906 50.7717955 46.5773656 50.9043182 46.4573375 51.0355417 46.3386 51.1251894 46.2547094 51.1563712 46.1888875 51.1316856 46.1308094 51.0732197 46.0340125 51.0342424 45.9681906 50.8783333 45.7061937 50.6652576 45.3461094 50.7652992 44.9214937 50.8042765 44.7575844 50.9069167 44.6156156 51.0498333 44.5265625 51.1044015 44.4930062 51.2200341 44.428475 51.3707462 44.3471656 51.5812235 44.2335906 52.1126136 43.9432 52.4374242 43.7276656 51.9554053 42.6809687 52.1152121 41.392925 52.2581288 40.2403969 52.302303 39.8841844 52.345178 39.5486219 52.3646667 39.2466156 52.3854545 38.894275 52.6855795 38.6271156 53.0441705 38.6490562 53.3988636 38.6709969 53.6678068 38.9730031 53.6457197 39.3253437 53.6262311 39.6660687 53.5807576 40.0222812 53.5339848 40.3991437 53.3988636 41.4897219 53.2442538 42.72485 53.7392652 43.4321125 53.8548977 43.5973125 53.893875 43.8051031 53.8471023 44.0038594 53.7483598 44.4233125 53.3144129 44.7395156 52.1684811 45.3693406 52.3178939 45.6223031 52.4984886 45.9591562 52.4348258 46.3579594 52.4244318 46.4186187 52.4114394 46.4754062 52.3958485 46.5309031 52.7167614 46.4160375 53.0519659 46.3089156 53.4053598 46.2095375 54.7409811 45.8313844 56.1454621 45.6636031 57.9527083 45.6636031 58.7517424 45.6636031 59.4637273 45.4119312 60.2185871 45.1447719 60.8149394 44.9331094 61.434678 44.7149937 62.125875 44.6117437 62.7105341 44.5226906 63.0132576 44.7098312 63.2744053 44.9098781 63.3614545 44.9769906 63.4251174 45.0234531 63.5342538 45.0660437 63.8395758 45.1847812 64.1942689 45.1460625 64.6048295 45.1034719 65.0205871 45.0583 65.4909129 45.0079656 65.9703333 45.130575 66.2561667 45.2041406 66.4549508 45.4622656 66.4523775 45.7552375 66.4406591 46.865175 64.9387348 47.3233469 64.2163561 47.5440437L63.5290568 47.7582875C63.0106591 47.9221969 62.4922614 48.0848156 61.9673674 48.2332375 61.7296061 48.2990594 61.4957424 48.3648812 61.2592803 48.42425 60.9877386 48.4926531 60.7097008 48.6462375 60.4173712 48.8075656 60.1172462 48.9740562 59.8067273 49.1457094 59.4507348 49.2618656 58.8335947 49.4606219 58.2021629 49.5651625 57.3992311 49.5974281 57.1692652 49.6077531 56.9457955 49.7084219 56.7106326 49.8116719 56.3637348 49.9678375 55.9297879 50.1627219 55.4451705 50.0052656 55.2385909 49.9807437 54.4317614 50.2530656 54.0445871 50.386 53.7392652 50.48925 53.4768182 50.5770125 53.2689394 50.6260562 52.5556553 50.7912562 51.8293788 50.9216094 51.1277879 51.0480906L50.635375 51.1371437C50.2079242 51.2145812 49.7791742 51.2958906 49.354322 51.3901062L49.3023523 51.4043031C49.1815227 51.4456031 49.011322 51.4972281 48.8242311 51.4972281zM50.1312689 48.3842406C50.115678 48.4526438 50.1000871 48.5197563 50.083197 48.58945 50.0637083 48.6707594 50.040322 48.7481969 50.0169356 48.8256344 49.9909508 48.909525 49.9714621 48.9753469 49.9636667 49.0308438 49.9454773 49.1921719 49.9428788 49.2799344 49.9623674 49.3676969 50.0117386 49.6064625 50.0013447 49.8039281 49.9597689 49.9665469 50.1065833 49.9381531 50.254697 49.9097594 50.4028106 49.8826563L50.9004205 49.7948938C51.5864205 49.6709938 52.2958068 49.5445125 52.9779091 49.3857656 53.1208258 49.3522094 53.3689811 49.2696094 53.6301288 49.1818469 54.6370417 48.8411219 55.3347348 48.63075 55.8440379 48.79595 55.8778182 48.7894969 56.0610114 48.7068969 56.1831402 48.6526906 56.4871629 48.5158844 56.8652424 48.3468125 57.3433636 48.3261625 58.0241667 48.2977688 58.5490606 48.2138781 59.0505682 48.0499688 59.290928 47.9725313 59.5325871 47.8383063 59.7911364 47.6950469 60.1445303 47.5014531 60.5083182 47.298825 60.9448636 47.1891219 61.1683333 47.133625 61.3931023 47.0703844 61.6152727 47.009725 62.1271742 46.8638844 62.635178 46.7038469 63.1405833 46.5438094L63.6096098 46.3992594C63.4303144 46.3747375 63.2497197 46.3308563 63.0678258 46.2598719 62.7871894 46.1514594 62.6104924 46.0159438 62.4935606 45.9268906 62.4649773 45.90495 62.4402917 45.8830094 62.4117083 45.8662313 62.4104091 45.8701031 62.377928 45.8701031 62.3181629 45.8778469 61.7490947 45.9630281 61.2151061 46.1514594 60.6512348 46.3515063 59.8262159 46.6431875 58.9765114 46.9439031 57.9540076 46.9439031 56.2688902 46.9439031 54.9761439 47.0974875 53.7587538 47.4420844 52.6660909 47.7492531 51.7761098 48.1286969 51.0381402 48.6023563 50.8211667 48.7417438 50.5431288 48.7378719 50.3287538 48.5959031 50.2456023 48.5391156 50.1780417 48.4668406 50.1312689 48.3842406zM64.098125 48.5029781C64.098125 48.5029781 64.0812348 48.4836188 64.0812348 48.4358656 64.0812348 48.3894031 64.098125 48.3687531 64.098125 48.3687531L64.9816098 48.3687531C64.9816098 48.3687531 64.9985 48.3894031 64.9985 48.4358656 64.9985 48.4823281 64.9816098 48.5029781 64.9816098 48.5029781L64.6334129 48.5029781 64.6334129 49.5509656C64.6334129 49.5509656 64.607428 49.570325 64.5424659 49.570325 64.4749053 49.570325 64.4476212 49.5509656 64.4476212 49.5509656L64.4476212 48.5029781 64.098125 48.5029781zM65.818322 49.4993406C65.8040303 49.508375 65.7806439 49.5187 65.7403674 49.5187 65.7130833 49.5187 65.679303 49.5135375 65.6663106 49.4993406L65.3973674 48.826925C65.3817765 48.7907875 65.3557917 48.7185125 65.3544924 48.7081875 65.3544924 48.71335 65.3479962 48.8075656 65.3440985 48.8346688L65.2947273 49.549675C65.2947273 49.549675 65.2700417 49.5690344 65.2024811 49.5690344 65.1349205 49.5690344 65.1076364 49.549675 65.1076364 49.549675L65.2011818 48.3868219C65.2011818 48.3868219 65.2271667 48.3687531 65.2908295 48.3687531 65.3609886 48.3687531 65.3882727 48.3868219 65.3882727 48.3868219L65.7000909 49.1702313 65.7416667 49.2992938C65.7429659 49.2941313 65.77025 49.20895 65.7845417 49.1702313L66.0976591 48.3868219C66.0976591 48.3868219 66.1249432 48.3687531 66.1964015 48.3687531 66.2587652 48.3687531 66.2834508 48.3868219 66.2834508 48.3868219L66.3769962 49.549675C66.3769962 49.549675 66.3497121 49.5690344 66.2821515 49.5690344 66.2158902 49.5690344 66.1925038 49.549675 66.1925038 49.549675L66.1405341 48.8333781 66.1301402 48.7068969C66.1301402 48.7081875 66.1015568 48.79595 66.0885644 48.8256344L65.818322 49.4993406z"/>
  </g>
</svg>
