<svg xmlns="http://www.w3.org/2000/svg" width="59" height="59" viewBox="0 0 59 59">
  <g fill="none" fill-rule="evenodd">
    <path fill="#FFFFFF" d="M29.5,59 C13.2075999,59 0,45.7924001 0,29.5 C0,13.2075999 13.2075999,0 29.5,0 C45.7924001,0 59,13.2075999 59,29.5 C59,45.7924001 45.7924001,59 29.5,59 Z M29.5,57 C44.6878306,57 57,44.6878306 57,29.5 C57,14.3121694 44.6878306,2 29.5,2 C14.3121694,2 2,14.3121694 2,29.5 C2,44.6878306 14.3121694,57 29.5,57 Z"/>
    <path fill="#FFFFFF" d="M9,16.5 C8.60220778,16.499915 8.2207391,16.3418241 7.9395,16.0605 L0.879,9 L3,6.879 L9,12.879 L21,0.879 L23.121,3 L10.0605,16.0605 C9.7792609,16.3418241 9.39779222,16.499915 9,16.5 Z" transform="translate(18 21)"/>
  </g>
</svg>
