<svg xmlns="http://www.w3.org/2000/svg" width="92" height="16" viewBox="0 0 92 16">
  <g fill="none" fill-rule="evenodd" transform="translate(0 -2)">
    <text fill="#000000" font-family="Helvetica" font-size="16">
      <tspan x="34" y="15">1/6</tspan>
    </text>
    <path fill="#111111" d="M8.72727273,10.9090909 L13.8181818,10.9090909 C15.4181818,10.9090909 16.7272727,9.6 16.7272727,8 C16.7272727,6.4 15.4181818,5.09090909 13.8181818,5.09090909 L8.72727273,5.09090909 L8.72727273,0.581818182 L0.363636364,8 L8.72727273,15.4181818 L8.72727273,10.9090909 Z" opacity=".26" transform="translate(.273 2)"/>
    <path fill="#111111" d="M8.72727273,10.9090909 L13.8181818,10.9090909 C15.4181818,10.9090909 16.7272727,9.6 16.7272727,8 C16.7272727,6.4 15.4181818,5.09090909 13.8181818,5.09090909 L8.72727273,5.09090909 L8.72727273,0.581818182 L0.363636364,8 L8.72727273,15.4181818 L8.72727273,10.9090909 Z" transform="matrix(-1 0 0 1 91.727 2)"/>
  </g>
</svg>
