<svg xmlns="http://www.w3.org/2000/svg" width="77" height="16" viewBox="0 0 77 16">
  <g fill="#111111" fill-rule="evenodd">
    <path d="M6.26086957 1.39130435L6.26086957 0 .695652174 0C.311652174 0 0 .311652174 0 .695652174L0 6.26086957 1.39130435 6.26086957 1.39130435 2.37495652 5.76904348 6.75269565 6.75269565 5.76904348 2.37495652 1.39130435 6.26086957 1.39130435zM14.6086957 13.6250435L10.2309565 9.24730435 9.24730435 10.2309565 13.6250435 14.6086957 9.73913043 14.6086957 9.73913043 16 15.3043478 16C15.6883478 16 16 15.6883478 16 15.3043478L16 9.73913043 14.6086957 9.73913043 14.6086957 13.6250435zM5.76904348 9.24730435L1.39130435 13.6250435 1.39130435 9.73913043 0 9.73913043 0 15.3043478C0 15.6883478.311652174 16 .695652174 16L6.26086957 16 6.26086957 14.6086957 2.37495652 14.6086957 6.75269565 10.2309565 5.76904348 9.24730435zM15.3043478 0L9.73913043 0 9.73913043 1.39130435 13.6250435 1.39130435 9.24730435 5.76904348 10.2309565 6.75269565 14.6086957 2.37495652 14.6086957 6.26086957 16 6.26086957 16 .695652174C16 .311652174 15.6883478 0 15.3043478 0z"/>
    <g transform="translate(31)">
      <polygon points="4 6 10 6 10 8 4 8"/>
      <path fill-rule="nonzero" d="M7,14 C3.14,14 0,10.86 0,7 C0,3.14 3.14,0 7,0 C10.86,0 14,3.14 14,7 C14,10.86 10.86,14 7,14 Z M7,2 C4.243,2 2,4.243 2,7 C2,9.757 4.243,12 7,12 C9.757,12 12,9.757 12,7 C12,4.243 9.757,2 7,2 Z"/>
      <path d="M15.707,14.293 L13.314,11.9 C12.903,12.429 12.429,12.903 11.9,13.314 L14.293,15.707 C14.488,15.902 14.744,16 15,16 C15.256,16 15.512,15.902 15.707,15.707 C16.098,15.316 16.098,14.684 15.707,14.293 Z"/>
    </g>
    <g transform="translate(61)">
      <polygon points="10 8 8 8 8 10 6 10 6 8 4 8 4 6 6 6 6 4 8 4 8 6 10 6"/>
      <path fill-rule="nonzero" d="M7,14 C3.14,14 0,10.86 0,7 C0,3.14 3.14,0 7,0 C10.86,0 14,3.14 14,7 C14,10.86 10.86,14 7,14 Z M7,2 C4.243,2 2,4.243 2,7 C2,9.757 4.243,12 7,12 C9.757,12 12,9.757 12,7 C12,4.243 9.757,2 7,2 Z"/>
      <path d="M15.707,14.293 L13.314,11.9 C12.903,12.429 12.429,12.903 11.9,13.314 L14.293,15.707 C14.488,15.902 14.744,16 15,16 C15.256,16 15.512,15.902 15.707,15.707 C16.098,15.316 16.098,14.684 15.707,14.293 Z"/>
    </g>
  </g>
</svg>
