<svg xmlns="http://www.w3.org/2000/svg" width="59" height="59" viewBox="0 0 59 59">
  <g fill="none" fill-rule="evenodd">
    <path fill="#FFFFFF" opacity="0.3" d="M29.5,59 C13.2075999,59 0,45.7924001 0,29.5 C0,13.2075999 13.2075999,0 29.5,0 C45.7924001,0 59,13.2075999 59,29.5 C59,45.7924001 45.7924001,59 29.5,59 Z M29.5,57 C44.6878306,57 57,44.6878306 57,29.5 C57,14.3121694 44.6878306,2 29.5,2 C14.3121694,2 2,14.3121694 2,29.5 C2,44.6878306 14.3121694,57 29.5,57 Z"/>
    <g fill="#FFFFFF" transform="translate(19 18)">
      <path d="M2.1 5.3C1.8 4.8 1.2 4.6.8 4.9.3 5.2.1 5.8.4 6.3L9.9 22.8C10.1 23.1 10.4 23.3 10.8 23.3 11 23.3 11.1 23.3 11.3 23.2 11.8 22.9 11.9 22.3 11.7 21.8L2.1 5.3zM21.6 9L17.1 1.2C17 1 16.7.8 16.4.8 16.1.8 15.8.8 15.6 1.1 14.3 2.3 12.8 2.4 11.3 2.4L10.2 2.4C8.2 2.4 6 2.6 4.3 5.1L9.9 14.7C10.1 14.6 10.2 14.5 10.3 14.3 11.5 12.2 12.9 12.1 14.8 12.1L15.8 12.1C17.6 12.1 19.6 12 21.5 10.3 21.8 10 21.8 9.5 21.6 9z"/>
    </g>
  </g>
</svg>
