<svg xmlns="http://www.w3.org/2000/svg" width="59" height="59" viewBox="0 0 59 59">
  <g fill="none" fill-rule="evenodd">
    <path fill="#FFFFFF" d="M29.5,59 C13.2075999,59 0,45.7924001 0,29.5 C0,13.2075999 13.2075999,0 29.5,0 C45.7924001,0 59,13.2075999 59,29.5 C59,45.7924001 45.7924001,59 29.5,59 Z M29.5,57 C44.6878306,57 57,44.6878306 57,29.5 C57,14.3121694 44.6878306,2 29.5,2 C14.3121694,2 2,14.3121694 2,29.5 C2,44.6878306 14.3121694,57 29.5,57 Z"/>
    <path fill="#49A2BD" d="M29.5,0 C13.2075999,0 0,13.2075999 0,29.5 C0,45.7924001 13.2075999,59 29.5,59 C44.6081389,59 57.0636345,47.6426841 58.7945391,33 L56.7793739,33 C55.0600912,46.5351745 43.5021411,57 29.5,57 C14.3121694,57 2,44.6878306 2,29.5 C2,14.3121694 14.3121694,2 29.5,2 L29.5,0 Z"/>
    <g fill="#FFFFFF" transform="translate(17 18)">
      <path d="M11,5 L11,12 C11,12.5522847 11.4477153,13 12,13 L19,13 L19,11 L13,11 L13,5 L11,5 Z"/>
      <path d="M12,1.77635684e-15 C5.37555305,0.00716484761 0.00716484761,5.37555305 5.32907052e-15,12 L2,12 C1.99628933,7.35331142 5.18893974,3.31425556 9.71089952,2.24485932 C14.2328593,1.17546309 18.8965166,3.35658428 20.9745796,7.51271022 C23.0526425,11.6688362 21.9993451,16.7084347 18.4306523,19.6843648 C14.8619594,22.6602949 9.71512446,22.7909817 6,20 L7.8,17.6 L0.6,17.2 L3,24 L4.8,21.594 C8.9760419,24.7314669 14.7019141,24.8072529 18.9595317,21.7814114 C23.2171493,18.7555699 25.0284405,13.3232058 23.4386807,8.34769693 C21.848921,3.37218805 17.2233143,-0.00347765001 12,1.77635684e-15 Z"/>
    </g>
  </g>
</svg>
