<svg xmlns="http://www.w3.org/2000/svg" width="59" height="59" viewBox="0 0 59 59">
  <g fill="none" fill-rule="evenodd">
    <path fill="#868686" d="M29.5,59 C13.2075999,59 0,45.7924001 0,29.5 C0,13.2075999 13.2075999,0 29.5,0 C45.7924001,0 59,13.2075999 59,29.5 C59,45.7924001 45.7924001,59 29.5,59 Z M29.5,57 C44.6878306,57 57,44.6878306 57,29.5 C57,14.3121694 44.6878306,2 29.5,2 C14.3121694,2 2,14.3121694 2,29.5 C2,44.6878306 14.3121694,57 29.5,57 Z"/>
    <g fill="#FFFFFF" transform="translate(18 18)">
      <path d="M22.704,1.29 C21.763,0.349 20.237,0.349 19.296,1.29 L17.586,3 L21,6.414 L22.71,4.704 C23.63,3.784 23.673,2.259 22.704,1.29 Z"/>
      <polygon points="15 3.586 2.079 16.507 .725 23.275 7.493 21.921 19 10.414 20.108 11.522 14.108 17.522 15.522 18.937 22.937 11.522"/>
    </g>
  </g>
</svg>
