<svg version="1.1" xmlns="http://www.w3.org/2000/svg">

  <defs>

    <symbol id="online" viewBox="0 0 16 16">
      <path fill="currentColor" d="M15,0H1C0.4,0,0,0.4,0,1v11c0,0.6,0.4,1,1,1h5v1H3v2h10v-2h-3v-1h5c0.6,0,1-0.4,1-1V1C16,0.4,15.6,0,15,0z M14,2v7H2V2H14z"></path>
    </symbol>

    <symbol id="scheduled" viewBox="0 0 16 16">
      <path fill="currentColor" d="M15,2h-2V0h-2v2H9V0H7v2H5V0H3v2H1C0.447,2,0,2.447,0,3v12c0,0.553,0.447,1,1,1h14c0.553,0,1-0.447,1-1V3 C16,2.447,15.553,2,15,2z M14,14H2V5h12V14z"></path>
      <rect data-color="color-2" x="4" y="7" width="2" height="2"></rect>
      <rect data-color="color-2" x="7" y="7" width="2" height="2"></rect>
      <rect data-color="color-2" x="4" y="10" width="2" height="2"></rect>
      <rect data-color="color-2" x="7" y="10" width="2" height="2"></rect>
      <rect data-color="color-2" x="10" y="7" width="2" height="2"></rect>
      <rect data-color="color-2" x="10" y="10" width="2" height="2"></rect>
    </symbol>

    <symbol id="exam" viewBox="0 0 16 16">
      <rect x="8" y="3" width="8" height="2" fill="currentColor"></rect>
      <path d="M5,1H1A1,1,0,0,0,0,2V6A1,1,0,0,0,1,7H5A1,1,0,0,0,6,6V2A1,1,0,0,0,5,1ZM4,5H2V3H4Z" fill="currentColor"></path>
      <rect data-color="color-2" x="8" y="11" width="8" height="2"></rect>
      <path data-color="color-2" d="M5.707,9.293a1,1,0,0,0-1.414,0L3,10.586,1.707,9.293A1,1,0,1,0,.293,10.707L1.586,12,.293,13.293a1,1,0,1,0,1.414,1.414L3,13.414l1.293,1.293a1,1,0,1,0,1.414-1.414L4.414,12l1.293-1.293A1,1,0,0,0,5.707,9.293Z"></path>
    </symbol>

    <symbol id="evaluation" viewBox="0 0 16 16">
      <path data-color="color-2" d="M13.3,2.3L7,8.6L5.7,7.3c-0.4-0.4-1-0.4-1.4,0s-0.4,1,0,1.4l2,2C6.5,10.9,6.7,11,7,11 s0.5-0.1,0.7-0.3l7-7c0.4-0.4,0.4-1,0-1.4S13.7,1.9,13.3,2.3z"></path>
      <path d="M1,16h12c0.6,0,1-0.4,1-1v-5c0-0.6-0.4-1-1-1s-1,0.4-1,1v4H2V4h5c0.6,0,1-0.4,1-1S7.6,2,7,2H1 C0.4,2,0,2.4,0,3v12C0,15.6,0.4,16,1,16z"></path>
    </symbol>

    <symbol id="confirmation" viewBox="0 0 16 16">
      <path fill="currentColor" d="M13.3,6H9V2c0-1.5-0.8-2-2-2C6.7,0,6.4,0.2,6.4,0.5C6.4,0.5,4.1,8,4,8v8h8.6c1.3,0,2.4-1,2.6-2.3L16,9.1 c0.1-0.8-0.1-1.6-0.6-2.1C14.9,6.3,14.1,6,13.3,6z"></path>
      <rect data-color="color-2" y="8" width="2" height="8"></rect>
    </symbol>

    <symbol id="assignment" viewBox="0 0 16 16">
      <path data-color="color-2" d="M6.3,11.7l-2-2c-0.4-0.4-0.4-1,0-1.4s1-0.4,1.4,0L7,9.6l3.3-3.3c0.4-0.4,1-0.4,1.4,0 s0.4,1,0,1.4l-4,4C7.3,12.1,6.8,12.2,6.3,11.7z"></path>
      <path fill="currentColor" d="M15,1h-3v2h2v11H2V3h2V1H1C0.4,1,0,1.4,0,2v13c0,0.6,0.4,1,1,1h14c0.6,0,1-0.4,1-1V2C16,1.4,15.6,1,15,1z"></path>
      <rect data-color="color-2" x="5" width="6" height="4"></rect>
    </symbol>

    <symbol id="video" viewBox="0 0 16 16">
      <rect data-color="color-2" x="3" y="14" width="10" height="2"></rect>
      <path fill="currentColor" d="M15,12H1c-0.6,0-1-0.4-1-1V1c0-0.6,0.4-1,1-1h14c0.6,0,1,0.4,1,1v10C16,11.6,15.6,12,15,12z M2,10h12V2H2V10 z"></path>
      <polygon data-color="color-2" points="6,9 10,6 6,3 "></polygon>
    </symbol>

    <symbol id="pdf" viewBox="0 0 24 24">
      <path d="M20 2H8c-1.1 0-2 .9-2 2v12c0 1.1.9 2 2 2h12c1.1 0 2-.9 2-2V4c0-1.1-.9-2-2-2zm-8.5 7.5c0 .83-.67 1.5-1.5 1.5H9v2H7.5V7H10c.83 0 1.5.67 1.5 1.5v1zm5 2c0 .83-.67 1.5-1.5 1.5h-2.5V7H15c.83 0 1.5.67 1.5 1.5v3zm4-3H19v1h1.5V11H19v2h-1.5V7h3v1.5zM9 9.5h1v-1H9v1zM4 6H2v14c0 1.1.9 2 2 2h14v-2H4V6zm10 5.5h1v-3h-1v3z"></path>
    </symbol>

    <symbol id="audio" viewBox="0 0 16 16">
      <path fill="currentColor" d="M8,0C3.589,0,0,3.589,0,8v5c0,1.654,1.346,3,3,3h1c0.553,0,1-0.448,1-1v-5c0-0.552-0.447-1-1-1H2V8 c0-3.309,2.691-6,6-6s6,2.691,6,6v1h-2c-0.553,0-1,0.448-1,1v5c0,0.552,0.447,1,1,1h1c1.654,0,3-1.346,3-3V8C16,3.589,12.411,0,8,0z "></path>
    </symbol>

  </defs>

</svg>
