<?xml version="1.0" encoding="UTF-8"?>
<svg width="16px" height="18px" viewBox="0 0 16 18" version="1.1" xmlns="http://www.w3.org/2000/svg" xmlns:xlink="http://www.w3.org/1999/xlink">
    <!-- Generator: Sketch 53.2 (72643) - https://sketchapp.com -->
    <title>ic_assignment_turned_in_48px</title>
    <desc>Created with Sketch.</desc>
    <g id="MTX-LMS" stroke="none" stroke-width="1" fill="none" fill-rule="evenodd">
        <g id="Module-Details---My-Courses" transform="translate(-360.000000, -456.000000)" fill="#000000" fill-rule="nonzero">
            <g id="Module-Section" transform="translate(330.000000, 214.000000)">
                <g id="Group-5" transform="translate(30.000000, 236.000000)">
                    <g id="ic_assignment_turned_in_48px" transform="translate(0.000000, 6.000000)">
                        <path d="M14.2222222,1.77777778 L10.5022222,1.77777778 C10.1377778,0.746666667 9.16,0 8,0 C6.84,0 5.86222222,0.746666667 5.49777778,1.77777778 L1.77777778,1.77777778 C0.795555556,1.77777778 0,2.57333333 0,3.55555556 L0,16 C0,16.9822222 0.795555556,17.7777778 1.77777778,17.7777778 L14.2222222,17.7777778 C15.2044444,17.7777778 16,16.9822222 16,16 L16,3.55555556 C16,2.57333333 15.2044444,1.77777778 14.2222222,1.77777778 Z M8,1.77777778 C8.48888889,1.77777778 8.88888889,2.17333333 8.88888889,2.66666667 C8.88888889,3.16 8.48888889,3.55555556 8,3.55555556 C7.51111111,3.55555556 7.11111111,3.16 7.11111111,2.66666667 C7.11111111,2.17333333 7.51111111,1.77777778 8,1.77777778 Z M6.22222222,14.2222222 L2.66666667,10.6666667 L3.92444444,9.40888889 L6.22222222,11.7066667 L12.0755556,5.85333333 L13.3333333,7.11111111 L6.22222222,14.2222222 Z" id="Shape"></path>
                    </g>
                </g>
            </g>
        </g>
    </g>
</svg>