<?xml version="1.0" encoding="UTF-8"?>
<svg width="16px" height="16px" viewBox="0 0 16 16" version="1.1" xmlns="http://www.w3.org/2000/svg" xmlns:xlink="http://www.w3.org/1999/xlink">
    <!-- Generator: Sketch 53.2 (72643) - https://sketchapp.com -->
    <title>headphones-3</title>
    <desc>Created with Sketch.</desc>
    <g id="MTX-LMS" stroke="none" stroke-width="1" fill="none" fill-rule="evenodd">
        <g id="Module-Details---My-Courses" transform="translate(-360.000000, -349.000000)" fill="#000000" fill-rule="nonzero">
            <g id="Module-Section" transform="translate(330.000000, 214.000000)">
                <g id="Group-2" transform="translate(30.000000, 128.000000)">
                    <g id="headphones-3" transform="translate(0.000000, 7.000000)">
                        <path d="M8,0 C3.58866667,0 0,3.58866667 0,8 L0,14 C0,15.1026667 0.897333333,16 2,16 L4.66666667,16 C5.03533333,16 5.33333333,15.7013333 5.33333333,15.3333333 L5.33333333,10 C5.33333333,9.632 5.03533333,9.33333333 4.66666667,9.33333333 L1.33333333,9.33333333 L1.33333333,8 C1.33333333,4.324 4.324,1.33333333 8,1.33333333 C11.676,1.33333333 14.6666667,4.324 14.6666667,8 L14.6666667,9.33333333 L11.3333333,9.33333333 C10.9646667,9.33333333 10.6666667,9.632 10.6666667,10 L10.6666667,15.3333333 C10.6666667,15.7013333 10.9646667,16 11.3333333,16 L14,16 C15.1026667,16 16,15.1026667 16,14 L16,8 C16,3.58866667 12.4113333,0 8,0 Z" id="Path"></path>
                    </g>
                </g>
            </g>
        </g>
    </g>
</svg>