<?xml version="1.0" encoding="UTF-8"?>
<svg width="16px" height="16px" viewBox="0 0 16 16" version="1.1" xmlns="http://www.w3.org/2000/svg" xmlns:xlink="http://www.w3.org/1999/xlink">
    <!-- Generator: Sketch 53.2 (72643) - https://sketchapp.com -->
    <title>questionnaire</title>
    <desc>Created with Sketch.</desc>
    <g id="MTX-LMS" stroke="none" stroke-width="1" fill="none" fill-rule="evenodd">
        <g id="Module-Details---My-Courses" transform="translate(-360.000000, -511.000000)" fill="#000000" fill-rule="nonzero">
            <g id="Module-Section" transform="translate(330.000000, 214.000000)">
                <g id="Group-6" transform="translate(30.000000, 290.000000)">
                    <g id="questionnaire" transform="translate(0.000000, 7.000000)">
                        <path d="M5.56521739,0 L0.695652174,0 C0.311454087,0 0,0.311454087 0,0.695652174 L0,5.56521739 C0,5.94941548 0.311454087,6.26086957 0.695652174,6.26086957 L5.56521739,6.26086957 C5.94941548,6.26086957 6.26086957,5.94941548 6.26086957,5.56521739 L6.26086957,0.695652174 C6.26086957,0.311454087 5.94941548,0 5.56521739,0 Z" id="Path"></path>
                        <path d="M14.6086957,9.04347826 L9.73913043,9.04347826 C9.35493235,9.04347826 9.04347826,9.35493235 9.04347826,9.73913043 L9.04347826,14.6086957 C9.04347826,14.9928937 9.35493235,15.3043478 9.73913043,15.3043478 L14.6086957,15.3043478 C14.9928937,15.3043478 15.3043478,14.9928937 15.3043478,14.6086957 L15.3043478,9.73913043 C15.3043478,9.35493235 14.9928937,9.04347826 14.6086957,9.04347826 Z" id="Path"></path>
                        <path d="M5.56521739,9.04347826 L0.695652174,9.04347826 C0.311454087,9.04347826 0,9.35493235 0,9.73913043 L0,14.6086957 C0,14.9928937 0.311454087,15.3043478 0.695652174,15.3043478 L5.56521739,15.3043478 C5.94941548,15.3043478 6.26086957,14.9928937 6.26086957,14.6086957 L6.26086957,9.73913043 C6.26086957,9.35493235 5.94941548,9.04347826 5.56521739,9.04347826 Z" id="Path"></path>
                        <path d="M11.1304348,3.88591304 L9.73913043,2.4946087 L8.75547826,3.47826087 L10.6386087,5.3613913 C10.9102608,5.63296135 11.3506088,5.63296135 11.6222609,5.3613913 L15.5923478,1.39130435 L14.6086957,0.407652174 L11.1304348,3.88591304 Z" id="Path"></path>
                    </g>
                </g>
            </g>
        </g>
    </g>
</svg>