<?xml version="1.0" encoding="UTF-8"?>
<svg width="62px" height="62px" viewBox="0 0 62 62" version="1.1" xmlns="http://www.w3.org/2000/svg" xmlns:xlink="http://www.w3.org/1999/xlink">
    <!-- Generator: Sketch 53.2 (72643) - https://sketchapp.com -->
    <title>Group 6</title>
    <desc>Created with Sketch.</desc>
    <g id="Symbols" stroke="none" stroke-width="1" fill="none" fill-rule="evenodd">
        <g id="Course-Card" transform="translate(-67.000000, -31.000000)">
            <g id="Group-5">
                <g transform="translate(68.000000, 32.000000)">
                    <g id="Group-6">
                        <g id="flag-diagonal-33" transform="translate(14.250000, 14.250000)" fill="#F6F7FB" fill-rule="nonzero">
                            <path d="M1.8,6.825 C1.575,6.45 1.125,6.375 0.75,6.525 C0.375,6.75 0.3,7.2 0.45,7.575 L14.7,32.25 C14.85,32.475 15.075,32.625 15.375,32.625 C15.525,32.625 15.6,32.625 15.75,32.55 C16.125,32.325 16.2,31.875 16.05,31.5 L1.8,6.825 Z" id="Path"></path>
                            <path d="M24.3,0.75 C24.15,0.525 24,0.45 23.775,0.375 C23.55,0.375 23.325,0.375 23.175,0.6 C20.775,2.85 18.075,2.775 15.45,2.775 C15.15,2.775 14.85,2.775 14.625,2.775 C11.55,2.775 8.325,3.15 6,7.2 C5.85,7.425 5.85,7.725 6,7.95 L12.75,19.65 C12.9,19.875 13.125,20.025 13.425,20.025 C13.425,20.025 13.425,20.025 13.425,20.025 C13.725,20.025 13.95,19.875 14.1,19.65 C16.05,16.2 18.525,15.9 21.525,15.9 L23.025,15.9 C25.65,15.9 28.425,15.675 31.05,13.425 C31.35,13.2 31.35,12.825 31.2,12.525 L24.3,0.75 Z" id="Path"></path>
                        </g>
                        <circle id="Oval" stroke="#F6F7FB" stroke-width="1.5" cx="30" cy="30" r="30"></circle>
                    </g>
                </g>
            </g>
        </g>
    </g>
</svg>