<?xml version="1.0" encoding="UTF-8"?>
<svg width="16px" height="16px" viewBox="0 0 16 16" version="1.1" xmlns="http://www.w3.org/2000/svg" xmlns:xlink="http://www.w3.org/1999/xlink">
    <!-- Generator: Sketch 53.2 (72643) - https://sketchapp.com -->
    <title>spaceship</title>
    <desc>Created with Sketch.</desc>
    <g id="Symbols" stroke="none" stroke-width="1" fill="none" fill-rule="evenodd">
        <g id="Button/Launch" transform="translate(-9.000000, -7.000000)" fill="#F6F7FB" fill-rule="nonzero">
            <g id="Clear">
                <g id="spaceship" transform="translate(9.000000, 7.000000)">
                    <path d="M15.72,0.282666667 C15.5864393,0.148185611 15.4019507,0.0769114116 15.2126667,0.0866666667 C5.86066667,0.574666667 2.406,8.90533333 2.37266667,8.98933333 C2.27294563,9.23704758 2.33065871,9.52036635 2.51933333,9.70933333 L6.29066667,13.4806667 C6.48055486,13.6702719 6.76561315,13.7275463 7.014,13.626 C7.09733333,13.592 15.3833333,10.0986667 15.9126667,0.790666667 C15.9234879,0.601658118 15.8534392,0.416962295 15.72,0.282666667 Z M10.276,7.60933333 C9.89470102,7.99074749 9.32117899,8.10489563 8.82289703,7.89854456 C8.32461508,7.69219349 7.99971527,7.2059863 7.99971527,6.66666667 C7.99971527,6.12734703 8.32461508,5.64113984 8.82289703,5.43478877 C9.32117899,5.2284377 9.89470102,5.34258585 10.276,5.724 C10.7965093,6.24466647 10.7965093,7.08866686 10.276,7.60933333 L10.276,7.60933333 Z" id="Shape"></path>
                    <path d="M0.742,12.5626667 C1.22042623,12.0809673 1.91989553,11.8918402 2.57587658,12.0668111 C3.23185763,12.241782 3.74421803,12.7541424 3.91918892,13.4101234 C4.09415981,14.0661045 3.90503271,14.7655738 3.42333333,15.244 C2.68266667,15.9846667 0,16 0,16 C0,16 0,13.3026667 0.742,12.5626667 Z" id="Path"></path>
                    <path d="M6.90466667,1.56066667 C4.99774574,1.22877102 3.04869626,1.84669558 1.68133333,3.21666667 C1.32480106,3.57650413 1.01482471,3.97965257 0.758666667,4.41666667 C0.60438276,4.67864236 0.646886363,5.01181576 0.862,5.22666667 L2.188,6.55333333 C3.42014647,4.59787788 5.02236295,2.90190626 6.90466667,1.56066667 L6.90466667,1.56066667 Z" id="color-2"></path>
                    <path d="M14.4393333,9.09533333 C14.771229,11.0022543 14.1533044,12.9513037 12.7833333,14.3186667 C12.4234959,14.6751989 12.0203474,14.9851753 11.5833333,15.2413333 C11.3213576,15.3956172 10.9881842,15.3531136 10.7733333,15.138 L9.44666667,13.812 C11.4021221,12.5798535 13.0980937,10.9776371 14.4393333,9.09533333 L14.4393333,9.09533333 Z" id="color-3"></path>
                </g>
            </g>
        </g>
    </g>
</svg>