<?xml version="1.0" encoding="UTF-8"?>
<svg width="16px" height="17px" viewBox="0 0 16 17" version="1.1" xmlns="http://www.w3.org/2000/svg" xmlns:xlink="http://www.w3.org/1999/xlink">
    <!-- Generator: Sketch 53.2 (72643) - https://sketchapp.com -->
    <title>like</title>
    <desc>Created with Sketch.</desc>
    <g id="Symbols" stroke="none" stroke-width="1" fill="none" fill-rule="evenodd">
        <g id="Course-Card" transform="translate(-220.000000, -192.000000)" fill="#376DC8" fill-rule="nonzero">
            <g id="Footer">
                <g transform="translate(200.000000, 179.000000)">
                    <g id="Group-3" transform="translate(20.000000, 13.500000)">
                        <g id="Group">
                            <g id="like">
                                <path d="M13.3,6 L9,6 L9,2 C9,0.5 8.2,0 7,0 C6.7,0 6.4,0.2 6.4,0.5 C6.4,0.5 4.1,8 4,8 L4,16 L12.6,16 C13.9,16 15,15 15.2,13.7 L16,9.1 C16.1,8.3 15.9,7.5 15.4,7 C14.9,6.3 14.1,6 13.3,6 Z" id="Path"></path>
                                <rect id="Rectangle" x="0" y="8" width="2" height="8"></rect>
                            </g>
                        </g>
                    </g>
                </g>
            </g>
        </g>
    </g>
</svg>