<?xml version="1.0" encoding="UTF-8"?>
<svg width="16px" height="16px" viewBox="0 0 16 16" version="1.1" xmlns="http://www.w3.org/2000/svg" xmlns:xlink="http://www.w3.org/1999/xlink">
    <!-- Generator: Sketch 53.2 (72643) - https://sketchapp.com -->
    <title>pdf</title>
    <desc>Created with Sketch.</desc>
    <g id="MTX-LMS" stroke="none" stroke-width="1" fill="none" fill-rule="evenodd">
        <g id="Module-Details---My-Courses" transform="translate(-360.000000, -295.000000)" fill="#000000" fill-rule="nonzero">
            <g id="Module-Section" transform="translate(330.000000, 214.000000)">
                <g id="Group-7" transform="translate(30.000000, 74.000000)">
                    <g id="pdf" transform="translate(0.000000, 7.000000)">
                        <path d="M1.5,14.5 L1.5,15.5 C1.5,15.8 1.7,16 2,16 L14,16 C14.3,16 14.5,15.8 14.5,15.5 L14.5,14.5 L1.5,14.5 Z" id="Path"></path>
                        <polygon id="Path" points="11 0.8 11 3.5 13.7 3.5"></polygon>
                        <path d="M5.45,9.25 L5.25,9.25 L5.25,9.9 L5.4,9.9 C5.5,9.9 5.6,9.85 5.7,9.8 C5.8,9.75 5.8,9.65 5.8,9.55 C5.8,9.35 5.7,9.25 5.45,9.25 Z" id="Path"></path>
                        <path d="M8,9.25 L7.8,9.25 L7.8,10.85 L7.95,10.85 C8.2,10.85 8.35,10.8 8.45,10.65 C8.55,10.5 8.6,10.3 8.6,10.05 C8.6,9.8 8.55,9.6 8.45,9.45 C8.35,9.3 8.25,9.25 8,9.25 Z" id="Path"></path>
                        <path d="M15.5,6.5 L14.5,6.5 L14.5,4.5 L10.5,4.5 C10.2,4.5 10,4.3 10,4 L10,0 L2,0 C1.7,0 1.5,0.2 1.5,0.5 L1.5,6.5 L0.5,6.5 C0.2,6.5 0,6.7 0,7 L0,13 C0,13.3 0.2,13.5 0.5,13.5 L15.5,13.5 C15.8,13.5 16,13.3 16,13 L16,7 C16,6.7 15.8,6.5 15.5,6.5 Z M6.3,10.3 C6.1,10.45 5.85,10.55 5.5,10.55 L5.3,10.55 L5.3,11.5 L4.5,11.5 L4.5,8.65 L5.5,8.65 C5.85,8.65 6.15,8.75 6.3,8.9 C6.45,9.05 6.55,9.3 6.55,9.55 C6.55,9.85 6.5,10.1 6.3,10.3 Z M9.05,11.1 C8.8,11.35 8.4,11.5 7.95,11.5 L7.05,11.5 L7.05,8.65 L8.05,8.65 C8.5,8.65 8.85,8.75 9.1,9 C9.35,9.25 9.45,9.55 9.45,10 C9.45,10.5 9.3,10.85 9.05,11.1 Z M11.65,9.25 L10.7,9.25 L10.7,9.8 L11.55,9.8 L11.55,10.4 L10.7,10.4 L10.7,11.5 L9.95,11.5 L9.95,8.65 L11.65,8.65 L11.65,9.25 Z" id="Shape"></path>
                    </g>
                </g>
            </g>
        </g>
    </g>
</svg>